<svg width="1458" height="1220" viewBox="0 0 1458 1220" fill="none" xmlns="http://www.w3.org/2000/svg">
    <g opacity="0.2" filter="url(#filter0_f)">
        <path fill-rule="evenodd" clip-rule="evenodd" d="M953.388 257.213C1012.03 281.282 1036.5 346.931 1075.23 397.108C1118.62 453.304 1207.03 498.376 1193.35 568.037C1179.14 640.329 1063.84 635.358 1017.21 692.396C970.727 749.247 996.456 856.285 930.796 889.168C867.089 921.074 787.409 877.514 728.973 836.748C678.048 801.221 666.481 734.739 633.775 681.958C601.93 630.566 542.191 592.299 540.059 531.879C537.88 470.13 582.288 417.745 622.804 371.096C662.185 325.754 710.211 290.154 766.992 270.593C827.364 249.795 894.315 232.967 953.388 257.213Z" fill="url(#paint0_linear)"/>
    </g>
    <path d="M86.39 822.026C79.1934 817.871 79.1927 811.135 86.3884 806.981L963.679 300.522C970.874 296.368 982.542 296.368 989.738 300.523L1371.97 521.185C1379.17 525.34 1379.17 532.075 1371.97 536.229L494.681 1042.69C487.486 1046.84 475.818 1046.84 468.622 1042.69L86.39 822.026Z" fill="#191E2C"/>
    <g filter="url(#filter1_dddddd)">
        <path d="M86.39 816.026C79.1934 811.871 79.1927 805.135 86.3884 800.981L963.679 294.522C970.874 290.368 982.542 290.368 989.738 294.523L1371.97 515.185C1379.17 519.34 1379.17 526.075 1371.97 530.229L494.681 1036.69C487.486 1040.84 475.818 1040.84 468.622 1036.69L86.39 816.026Z" fill="#191E2C"/>
    </g>
    <g filter="url(#filter2_d)">
        <path d="M222.301 788.061L241.579 776.931C246.187 774.272 251.136 772.439 256.427 771.434C261.717 770.382 266.926 770.215 272.052 770.935C277.219 771.631 281.92 773.202 286.155 775.647C290.39 778.091 293.11 780.805 294.316 783.788C295.563 786.747 295.295 789.766 293.513 792.844C291.731 795.875 288.537 798.72 283.929 801.38L264.651 812.509L222.301 788.061ZM275.398 797.015C279.641 794.565 281.846 791.941 282.013 789.144C282.179 786.301 280.246 783.715 276.213 781.386C272.179 779.058 267.72 777.953 262.834 778.073C257.949 778.145 253.384 779.407 249.141 781.857L240.168 787.036L266.425 802.194L275.398 797.015Z" fill="white"/>
        <path d="M331.804 763.264L312.102 774.638L317.418 782.047L307.354 787.857L283.919 752.489L293.619 746.889L354.944 760.383L344.638 766.333L331.804 763.264ZM321.271 760.753L298.328 755.277L307.812 768.522L321.271 760.753Z" fill="white"/>
        <path d="M372.804 750.911C369.449 752.848 365.752 754.47 361.712 755.777C357.672 757.038 353.977 757.798 350.625 758.056L346.579 751.871C349.728 751.589 352.959 750.958 356.272 749.977C359.584 748.996 362.493 747.782 364.999 746.336C367.788 744.726 369.446 743.303 369.973 742.067C370.459 740.808 370.017 739.783 368.646 738.991C367.637 738.409 366.406 738.165 364.953 738.259C363.499 738.307 361.944 738.576 360.288 739.066C358.672 739.533 356.572 740.234 353.986 741.168C349.986 742.592 346.573 743.678 343.745 744.425C340.918 745.173 337.909 745.489 334.72 745.375C331.571 745.237 328.585 744.353 325.762 742.723C323.301 741.302 321.75 739.637 321.107 737.726C320.424 735.792 320.832 733.717 322.329 731.502C323.868 729.263 326.577 727.024 330.457 724.784C333.164 723.221 336.134 721.879 339.366 720.758C342.598 719.638 345.789 718.867 348.939 718.445L353.349 724.491C347.211 725.474 342.181 727.097 338.261 729.36C335.513 730.946 333.915 732.381 333.469 733.663C333.063 734.922 333.586 735.97 335.038 736.809C336.49 737.647 338.327 737.844 340.548 737.4C342.77 736.909 345.779 735.963 349.577 734.562C353.576 733.138 356.99 732.052 359.817 731.305C362.645 730.557 365.613 730.241 368.722 730.356C371.871 730.447 374.857 731.308 377.68 732.938C380.1 734.335 381.631 736.012 382.274 737.97C382.917 739.88 382.469 741.955 380.931 744.194C379.392 746.432 376.683 748.671 372.804 750.911Z" fill="white"/>
        <path d="M392.151 690.006L434.501 714.455L424.68 720.124L407.317 710.101L388.038 721.23L405.402 731.254L395.581 736.923L353.231 712.475L363.052 706.805L379.75 716.445L399.028 705.316L382.33 695.676L392.151 690.006Z" fill="white"/>
        <path d="M421.318 663.249L429.744 658.384L466.73 702.835L458.303 707.699L421.318 663.249Z" fill="white"/>
        <path d="M517.349 667.465C511.287 670.965 504.884 672.728 498.142 672.755C491.44 672.759 484.983 670.968 478.772 667.383L455.056 653.691L464.877 648.022L488.23 661.503C495.812 665.881 502.756 666.25 509.061 662.61C512.132 660.837 513.569 658.96 513.371 656.979C513.132 654.974 511.056 652.843 507.144 650.584L483.791 637.102L493.491 631.503L517.207 645.194C523.418 648.78 526.5 652.519 526.453 656.411C526.446 660.281 523.412 663.965 517.349 667.465Z" fill="white"/>
        <path d="M559.003 643.418C555.648 645.355 551.951 646.977 547.911 648.285C543.872 649.546 540.176 650.305 536.825 650.564L532.778 644.378C535.928 644.096 539.159 643.465 542.471 642.484C545.784 641.503 548.693 640.289 551.198 638.843C553.987 637.233 555.645 635.81 556.172 634.575C556.659 633.316 556.216 632.29 554.845 631.499C553.837 630.917 552.606 630.673 551.152 630.767C549.698 630.814 548.144 631.083 546.487 631.573C544.872 632.041 542.771 632.741 540.185 633.675C536.186 635.099 532.772 636.185 529.945 636.932C527.117 637.68 524.109 637.996 520.919 637.882C517.77 637.744 514.784 636.86 511.961 635.23C509.501 633.81 507.949 632.144 507.306 630.233C506.623 628.299 507.031 626.224 508.529 624.009C510.067 621.771 512.776 619.531 516.656 617.291C519.364 615.728 522.334 614.386 525.565 613.266C528.797 612.145 531.988 611.374 535.138 610.952L539.549 616.998C533.41 617.981 528.38 619.604 524.46 621.867C521.712 623.454 520.115 624.888 519.668 626.17C519.262 627.429 519.785 628.478 521.237 629.316C522.689 630.154 524.526 630.351 526.747 629.907C528.969 629.416 531.978 628.47 535.776 627.07C539.776 625.646 543.189 624.56 546.017 623.812C548.844 623.065 551.812 622.748 554.921 622.863C558.07 622.954 561.056 623.815 563.879 625.445C566.299 626.842 567.831 628.519 568.473 630.477C569.116 632.388 568.668 634.462 567.13 636.701C565.592 638.939 562.883 641.178 559.003 643.418Z" fill="white"/>
        <path d="M539.43 604.982L558.708 593.853C563.316 591.193 568.265 589.36 573.556 588.355C578.847 587.303 584.055 587.137 589.182 587.856C594.348 588.552 599.049 590.123 603.284 592.568C607.519 595.013 610.24 597.726 611.446 600.709C612.692 603.669 612.424 606.687 610.642 609.765C608.86 612.796 605.666 615.641 601.058 618.301L581.78 629.431L539.43 604.982ZM592.527 613.936C596.771 611.486 598.976 608.863 599.142 606.066C599.309 603.222 597.375 600.636 593.342 598.307C589.309 595.979 584.849 594.875 579.964 594.994C575.078 595.067 570.514 596.328 566.27 598.778L557.298 603.958L583.555 619.116L592.527 613.936Z" fill="white"/>
    </g>
    <g filter="url(#filter3_d)">
        <path d="M1363.31 500.007C1365.89 501.498 1366.04 503.834 1363.63 505.222L1232.84 580.726C1230.44 582.115 1226.39 582.032 1223.81 580.54C1221.23 579.049 1221.08 576.714 1223.49 575.325L1354.27 499.821C1356.68 498.432 1360.73 498.515 1363.31 500.007Z" fill="#EA712C"/>
    </g>
    <g filter="url(#filter4_d)">
        <path d="M1212.75 586.924C1215.34 588.416 1215.49 590.744 1213.1 592.124L1083.11 667.168C1080.72 668.548 1076.69 668.458 1074.1 666.966C1071.52 665.475 1071.36 663.147 1073.75 661.766L1203.74 586.723C1206.13 585.342 1210.17 585.432 1212.75 586.924Z" fill="#EA712C"/>
    </g>
    <g filter="url(#filter5_d)">
        <path d="M1063.89 672.859C1066.48 674.351 1066.63 676.679 1064.24 678.059L934.252 753.103C931.861 754.483 927.828 754.393 925.244 752.901C922.661 751.41 922.504 749.082 924.896 747.701L1054.89 672.658C1057.28 671.277 1061.31 671.367 1063.89 672.859Z" fill="#1BC53C"/>
    </g>
    <g filter="url(#filter6_d)">
        <path d="M915.037 758.794C917.621 760.286 917.765 762.621 915.36 764.01L784.572 839.513C782.166 840.902 778.121 840.819 775.537 839.327C772.954 837.836 772.809 835.501 775.215 834.112L906.003 758.608C908.409 757.219 912.454 757.302 915.037 758.794Z" fill="#1BC53C"/>
    </g>
    <g filter="url(#filter7_d)">
        <path d="M766.181 844.729C768.765 846.221 768.921 848.549 766.53 849.929L636.54 924.973C634.148 926.353 630.115 926.263 627.532 924.771C624.948 923.28 624.792 920.952 627.183 919.571L757.173 844.528C759.564 843.147 763.597 843.237 766.181 844.729Z" fill="#1BC53C"/>
    </g>
    <g filter="url(#filter8_d)">
        <path d="M616.473 931.155C619.057 932.647 619.189 934.989 616.769 936.386L485.183 1012.35C482.763 1013.75 478.706 1013.67 476.122 1012.18C473.539 1010.69 473.406 1008.35 475.827 1006.95L607.412 930.984C609.832 929.587 613.889 929.663 616.473 931.155Z" fill="#1BC53C"/>
    </g>
    <g filter="url(#filter9_d)">
        <path d="M340.038 825.546L413.233 867.802L396.332 877.558L336.731 843.15L322.125 851.582L308.532 843.735L340.038 825.546Z" fill="#1BC53C"/>
        <path d="M436.353 855.42C433.502 857.066 430.126 857.888 426.227 857.885C422.328 857.883 418.914 857.036 415.987 855.346C412.989 853.616 411.558 851.665 411.693 849.495C411.758 847.284 413.216 845.355 416.068 843.709C418.92 842.063 422.26 841.221 426.09 841.183C429.849 841.105 433.228 841.932 436.226 843.662C439.153 845.352 440.62 847.323 440.624 849.574C440.628 851.825 439.205 853.774 436.353 855.42Z" fill="#1BC53C"/>
        <path d="M432.566 803.882C442.86 797.939 452.497 794.75 461.478 794.314C470.529 793.837 478.505 795.591 485.406 799.575C489.868 802.151 492.833 805.148 494.302 808.565C495.701 811.943 495.221 815.6 492.862 819.538C490.502 823.395 485.984 827.251 479.307 831.106C474.16 834.077 468.421 836.626 462.089 838.752C455.756 840.798 449.597 842.1 443.61 842.659L437.321 831.319C442.194 830.921 447.031 830.019 451.833 828.616C456.565 827.172 460.844 825.345 464.669 823.137C468.911 820.688 471.413 818.278 472.174 815.907C472.936 813.536 471.817 811.485 468.82 809.754C465.683 807.943 462.026 807.318 457.85 807.878C453.743 808.398 448.559 810.464 442.3 814.078L423.626 824.859L386.183 798.907L430.73 773.19L444.323 781.037L413.86 798.624L426.62 807.315L432.566 803.882Z" fill="#1BC53C"/>
        <path d="M504.521 762.101C509.181 759.41 514.365 757.504 520.072 756.383C525.779 755.261 531.489 755.064 537.2 755.791C542.841 756.478 547.927 758.13 552.458 760.745C557.338 763.562 560.408 766.74 561.668 770.278C562.929 773.816 562.448 777.394 560.227 781.01C558.006 784.546 554.322 787.799 549.176 790.77C538.952 796.673 527.817 799.479 515.77 799.19C503.724 798.9 491.88 795.395 480.238 788.675C471.943 783.886 466.398 778.878 463.602 773.65C460.806 768.423 460.657 763.318 463.154 758.335C465.72 753.312 470.689 748.672 478.062 744.416C481.957 742.168 486.131 740.281 490.584 738.757C495.037 737.152 499.317 736.09 503.424 735.57L509.608 746.367C503.551 747.046 497.776 748.972 492.281 752.144C486.092 755.717 483.001 759.594 483.009 763.775C483.017 767.955 486.333 772.118 492.956 776.262C492.946 771.278 496.801 766.557 504.521 762.101ZM535.585 784.008C539.201 781.921 541.146 779.671 541.42 777.259C541.763 774.807 540.262 772.616 536.916 770.684C533.57 768.752 529.773 767.886 525.526 768.084C521.279 768.201 517.278 769.344 513.522 771.513C509.836 773.641 507.856 775.991 507.583 778.563C507.24 781.095 508.671 783.287 511.878 785.138C515.085 786.99 518.846 787.836 523.163 787.678C527.48 787.52 531.62 786.297 535.585 784.008Z" fill="#1BC53C"/>
        <path d="M565.26 695.525L576.24 701.864L611.331 753.44L592.97 764.04L559.763 714.635L535.56 728.608L547.48 735.49L532.457 744.162L506.734 729.312L565.26 695.525Z" fill="#1BC53C"/>
        <path d="M655.739 683.374C661.168 682.333 666.285 682.115 671.091 682.721C675.966 683.287 680.321 684.677 684.155 686.89C688.686 689.506 691.373 692.543 692.215 696C692.988 699.418 691.985 703.015 689.207 706.791C686.36 710.528 681.876 714.163 675.756 717.696C669.635 721.229 663.339 723.818 656.867 725.461C650.394 727.025 644.199 727.584 638.279 727.137C632.36 726.611 627.134 725.04 622.603 722.424C618.769 720.211 616.327 717.717 615.277 714.943C614.297 712.128 614.674 709.174 616.408 706.08C612.023 706.68 607.845 706.677 603.875 706.072C599.835 705.426 596.177 704.157 592.901 702.266C588.649 699.811 586.136 696.995 585.364 693.819C584.592 690.643 585.491 687.348 588.06 683.933C590.56 680.477 594.557 677.164 600.052 673.992C605.616 670.78 611.39 668.452 617.375 667.009C623.36 665.485 629.104 664.947 634.605 665.392C640.107 665.838 644.984 667.288 649.236 669.743C652.513 671.635 654.71 673.746 655.829 676.079C656.878 678.371 656.848 680.803 655.739 683.374ZM612.495 681.175C609.087 683.143 607.176 685.211 606.763 687.382C606.349 689.472 607.571 691.342 610.429 692.992C613.218 694.601 616.422 695.287 620.042 695.048C623.662 694.809 627.211 693.686 630.689 691.679C634.166 689.671 636.147 687.602 636.63 685.472C637.113 683.342 635.96 681.472 633.172 679.862C630.314 678.212 627.04 677.527 623.35 677.806C619.591 678.044 615.972 679.168 612.495 681.175ZM663.313 710.512C667.555 708.063 669.953 705.593 670.505 703.101C671.057 700.529 669.729 698.317 666.523 696.466C663.316 694.614 659.52 693.868 655.134 694.227C650.817 694.546 646.538 695.93 642.295 698.379C638.122 700.788 635.76 703.239 635.208 705.73C634.656 708.222 635.983 710.394 639.19 712.245C642.466 714.136 646.262 714.923 650.579 714.604C654.895 714.285 659.14 712.921 663.313 710.512Z" fill="#1BC53C"/>
        <path d="M703.838 649.933C711.282 646.842 718.59 645.4 725.762 645.606C732.865 645.771 739.17 647.444 744.677 650.623C748.929 653.078 751.755 655.994 753.154 659.371C754.484 662.709 753.934 666.326 751.504 670.224C749.145 674.081 744.661 677.917 738.054 681.731C732.907 684.702 727.168 687.251 720.836 689.377C714.504 691.423 708.344 692.725 702.357 693.284L695.963 682.005C700.837 681.606 705.674 680.705 710.476 679.301C715.277 677.817 719.591 675.971 723.416 673.762C727.659 671.313 730.195 668.923 731.026 666.592C731.787 664.221 730.669 662.17 727.672 660.44C721.677 656.979 714.124 657.878 705.013 663.138L697.293 667.595L686.104 661.136L684.083 642.624L652.994 660.571L639.401 652.724L690.52 623.213L701.499 629.551L703.838 649.933Z" fill="#1BC53C"/>
    </g>
    <g style="mix-blend-mode:multiply">
        <path d="M878.408 468.87C874.414 466.564 874.39 462.975 878.067 460.852C881.745 458.729 887.962 458.743 891.956 461.048L896.379 463.602C900.372 465.908 900.397 469.496 896.719 471.62C893.041 473.743 886.824 473.729 882.831 471.423L878.408 468.87Z" stroke="#505561" stroke-width="4"/>
        <path d="M899.575 446.716C895.733 444.498 895.747 440.824 899.757 438.509C903.767 436.194 910.132 436.186 913.974 438.404L927.097 445.98C930.939 448.198 930.925 451.872 926.915 454.187C922.905 456.502 916.541 456.51 912.699 454.292L899.575 446.716Z" stroke="#505561" stroke-width="4"/>
        <path d="M920.976 423.714C917.034 421.439 917.038 417.729 921.023 415.429C925.008 413.129 931.433 413.126 935.374 415.402L957.585 428.224C961.526 430.499 961.522 434.209 957.537 436.509C953.553 438.809 947.127 438.812 943.186 436.536L920.976 423.714Z" stroke="#505561" stroke-width="4"/>
    </g>
    <g filter="url(#filter10_d)">
        <path d="M1027.01 434.358C1024.71 429.174 1033.06 424.351 1042.04 425.676L1132.97 439.1C1141.95 440.426 1144.82 446.906 1138.13 450.765L1070.46 489.831C1063.78 493.689 1052.56 492.032 1050.26 486.848L1027.01 434.358Z" fill="#1BC53C"/>
    </g>
    <g filter="url(#filter11_d)">
        <path d="M876.675 459.87C871.79 457.049 871.637 452.564 876.335 449.852C881.033 447.14 888.802 447.228 893.688 450.049L898.111 452.602C902.997 455.423 903.149 459.908 898.451 462.62C893.753 465.332 885.984 465.244 881.099 462.423L876.675 459.87Z" fill="white"/>
        <path d="M897.843 437.716C893.011 434.926 893.092 430.357 898.025 427.509C902.958 424.661 910.874 424.614 915.706 427.404L928.829 434.98C933.661 437.769 933.58 442.339 928.647 445.187C923.714 448.035 915.799 448.082 910.967 445.292L897.843 437.716Z" fill="white"/>
        <path d="M919.244 414.714C914.337 411.882 914.358 407.277 919.291 404.429C924.223 401.582 932.2 401.569 937.106 404.402L959.317 417.224C964.223 420.057 964.202 424.661 959.269 427.509C954.337 430.356 946.36 430.369 941.454 427.536L919.244 414.714Z" fill="white"/>
    </g>
    <path opacity="0.2" fill-rule="evenodd" clip-rule="evenodd" d="M984.845 412.744L954.532 395.245C952.141 393.864 948.203 393.899 945.736 395.323C943.27 396.747 943.209 399.02 945.601 400.401L975.914 417.9C978.305 419.281 982.243 419.246 984.71 417.822C987.176 416.398 987.237 414.125 984.845 412.744ZM941.406 392.823C936.473 395.67 936.352 400.217 941.135 402.979L971.448 420.478C976.231 423.24 984.108 423.17 989.04 420.322C993.973 417.474 994.094 412.927 989.311 410.166L958.998 392.667C954.215 389.905 946.339 389.975 941.406 392.823Z" fill="white"/>
    <path opacity="0.2" fill-rule="evenodd" clip-rule="evenodd" d="M1016.56 394.466L977.689 372.028C975.304 370.651 971.466 370.635 969.118 371.991C966.769 373.347 966.798 375.562 969.183 376.939L1008.05 399.376C1010.43 400.753 1014.27 400.77 1016.62 399.414C1018.97 398.058 1018.94 395.843 1016.56 394.466ZM964.799 369.498C960.101 372.21 960.16 376.64 964.93 379.394L1003.8 401.832C1008.57 404.586 1016.24 404.619 1020.94 401.907C1025.64 399.195 1025.58 394.764 1020.81 392.011L981.942 369.573C977.172 366.819 969.497 366.785 964.799 369.498Z" fill="white"/>
    <g filter="url(#filter12_d)">
        <path d="M548.638 861.793L581.345 880.674L575.08 884.291L547.466 868.35L540.333 872.467L535.24 869.527L548.638 861.793Z" fill="#505561"/>
        <path d="M566.993 851.196L599.7 870.078L593.435 873.695L565.821 857.753L558.688 861.871L553.595 858.931L566.993 851.196Z" fill="#505561"/>
        <path d="M592.677 853.956C591.584 854.587 590.294 854.918 588.807 854.949C587.288 854.963 585.968 854.646 584.847 853.999C583.694 853.333 583.129 852.581 583.152 851.74C583.206 850.882 583.796 850.128 584.921 849.478C586.045 848.829 587.335 848.498 588.79 848.485C590.278 848.454 591.598 848.77 592.75 849.436C593.872 850.083 594.421 850.845 594.397 851.722C594.343 852.581 593.769 853.325 592.677 853.956ZM610.478 864.233C609.386 864.864 608.096 865.195 606.608 865.226C605.09 865.24 603.77 864.923 602.648 864.276C601.496 863.61 600.931 862.858 600.953 862.017C601.008 861.159 601.598 860.405 602.722 859.755C603.847 859.106 605.137 858.775 606.592 858.762C608.08 858.731 609.4 859.047 610.552 859.713C611.674 860.36 612.222 861.122 612.199 861.999C612.144 862.858 611.571 863.602 610.478 864.233Z" fill="#505561"/>
        <path d="M608.668 841.757C613.423 839.012 617.845 837.502 621.933 837.228C625.99 836.936 629.56 837.681 632.644 839.461C634.606 840.594 635.883 841.906 636.476 843.398C637.069 844.89 636.836 846.481 635.779 848.171C634.721 849.86 632.73 851.549 629.807 853.237C627.397 854.628 624.74 855.784 621.837 856.704C618.903 857.607 616.073 858.162 613.347 858.369L611.278 854.115C613.528 853.967 615.817 853.563 618.143 852.903C620.471 852.206 622.567 851.32 624.43 850.244C626.647 848.964 627.946 847.711 628.327 846.484C628.709 845.221 628.121 844.14 626.564 843.24C624.882 842.269 622.929 841.94 620.707 842.252C618.485 842.527 615.72 843.62 612.41 845.531L604.266 850.233L588.199 838.954L608.007 827.519L613.099 830.459L598.593 838.834L605.439 843.621L608.668 841.757Z" fill="#505561"/>
        <path d="M641.226 823.932C644.716 822.349 648.122 821.57 651.442 821.595C654.763 821.62 657.685 822.361 660.208 823.818C662.108 824.914 663.339 826.2 663.9 827.674C664.462 829.148 664.198 830.739 663.108 832.447C662.019 834.119 660.029 835.789 657.138 837.459C654.728 838.85 652.071 840.006 649.168 840.926C646.266 841.811 643.436 842.365 640.678 842.591L638.658 838.309C640.875 838.179 643.148 837.785 645.474 837.125C647.802 836.428 649.898 835.542 651.761 834.466C653.978 833.186 655.277 831.933 655.658 830.706C656.04 829.443 655.468 828.37 653.941 827.489C652.415 826.608 650.621 826.277 648.559 826.496C646.498 826.679 644.231 827.485 641.757 828.913L638.672 830.694L634.514 828.293L633.346 818.771L618.02 827.619L612.927 824.679L635.916 811.407L639.981 813.754L641.226 823.932Z" fill="#505561"/>
    </g>
    <g filter="url(#filter13_d)">
        <path fill-rule="evenodd" clip-rule="evenodd" d="M469.714 892.624C453.75 901.84 453.779 916.783 469.743 925.999C485.707 935.215 511.591 935.232 527.556 926.016C543.549 916.783 543.549 901.823 527.585 892.607C511.62 883.391 485.707 883.391 469.714 892.624ZM521.8 922.66C509.017 930.039 488.31 930.039 475.527 922.66C462.744 915.28 462.744 903.326 475.527 895.946C488.31 888.567 509.017 888.567 521.8 895.946C534.583 903.326 534.583 915.28 521.8 922.66ZM481.311 902.625L485.649 900.12L500.833 908.886L521.569 905.83L522.957 909.136L498.664 912.642L481.311 902.625Z" fill="#505561"/>
    </g>
    <g filter="url(#filter14_d)">
        <path fill-rule="evenodd" clip-rule="evenodd" d="M713.444 751.919C697.245 761.271 697.054 776.34 713.018 785.557C728.983 794.773 755.086 794.663 771.285 785.311C787.484 775.959 787.675 760.89 771.711 751.674C755.746 742.457 729.643 742.567 713.444 751.919ZM742.545 754.353C735.728 754.382 729.531 755.989 725.012 758.598L742.364 768.615L742.184 782.877C755.819 782.82 766.97 776.382 767.099 768.494C767.198 760.623 756.209 754.278 742.545 754.353ZM718.888 782.168C731.671 789.548 752.53 789.46 765.501 781.972C778.472 774.484 778.624 762.441 765.841 755.062C753.058 747.682 732.199 747.77 719.228 755.258C706.257 762.746 706.105 774.789 718.888 782.168Z" fill="#505561"/>
    </g>
    <g filter="url(#filter15_d)">
        <path d="M802.69 729.172C807.43 726.435 811.863 724.945 815.988 724.7C820.081 724.437 823.707 725.217 826.866 727.041C828.876 728.201 830.198 729.538 830.832 731.051C831.467 732.563 831.269 734.169 830.241 735.868C829.212 737.567 827.24 739.258 824.325 740.941C821.923 742.328 819.265 743.475 816.353 744.383C813.409 745.272 810.562 745.81 807.812 745.998L805.621 741.682C807.891 741.55 810.194 741.16 812.53 740.511C814.866 739.826 816.963 738.947 818.821 737.874C821.031 736.598 822.314 735.342 822.67 734.105C823.026 732.831 822.406 731.734 820.811 730.813C819.088 729.818 817.107 729.47 814.868 729.768C812.629 730.028 809.86 731.111 806.561 733.016L798.441 737.704L781.936 726.178L801.683 714.778L806.9 717.789L792.438 726.139L799.471 731.031L802.69 729.172Z" fill="#505561"/>
        <path d="M862.403 688.566C865.638 686.698 869.142 685.762 872.914 685.758C876.655 685.736 880.391 686.802 884.124 688.957L898.77 697.412L892.764 700.879L878.884 692.866C876.651 691.577 874.479 690.896 872.369 690.825C870.228 690.735 868.228 691.226 866.37 692.299C864.352 693.464 863.405 694.785 863.528 696.261C863.618 697.719 864.892 699.157 867.349 700.575L880.319 708.063L874.313 711.53L860.434 703.518C858.2 702.228 856.029 701.548 853.919 701.476C851.777 701.386 849.778 701.878 847.92 702.95C845.87 704.134 844.89 705.455 844.981 706.912C845.104 708.352 846.41 709.79 848.899 711.227L861.869 718.714L855.863 722.182L830.306 707.427L836.023 704.126L839.278 706.005C839.09 704.787 839.414 703.587 840.249 702.405C841.084 701.223 842.383 700.124 844.145 699.107C846.066 697.997 848.131 697.229 850.338 696.802C852.546 696.338 854.784 696.262 857.053 696.573C856.77 695.189 857.094 693.804 858.026 692.419C858.926 691.015 860.385 689.731 862.403 688.566Z" fill="#505561"/>
        <path d="M880.887 678.227L886.893 674.759L912.451 689.514L906.445 692.981L880.887 678.227ZM879.702 674.048C878.613 674.676 877.365 675.01 875.959 675.049C874.52 675.069 873.29 674.784 872.269 674.194C871.248 673.605 870.771 672.904 870.838 672.092C870.872 671.262 871.434 670.532 872.523 669.903C873.612 669.274 874.86 668.941 876.267 668.902C877.642 668.845 878.824 669.103 879.813 669.674C880.866 670.281 881.391 671.01 881.388 671.859C881.385 672.671 880.823 673.4 879.702 674.048Z" fill="#505561"/>
        <path d="M909.047 661.638C912.282 659.771 915.818 658.816 919.655 658.775C923.491 658.734 927.26 659.781 930.961 661.918L945.606 670.373L939.6 673.84L925.721 665.827C923.487 664.538 921.284 663.876 919.11 663.842C916.904 663.789 914.824 664.326 912.871 665.454C910.66 666.73 909.585 668.125 909.644 669.638C909.67 671.133 910.928 672.599 913.417 674.036L926.339 681.496L920.333 684.963L894.776 670.209L900.494 666.908L903.796 668.814C903.608 667.559 903.964 666.323 904.863 665.103C905.763 663.884 907.157 662.729 909.047 661.638Z" fill="#505561"/>
    </g>
    <g filter="url(#filter16_d)">
        <path fill-rule="evenodd" clip-rule="evenodd" d="M1015.55 609.925L1042.74 610.038L1042.8 614.816L1007.33 614.669L1007.07 594.191L1015.35 594.226L1015.55 609.925ZM1057.8 585.529L1058 601.228L1066.28 601.263L1066.02 580.786L1030.55 580.638L1030.61 585.416L1057.8 585.529Z" fill="#505561"/>
    </g>
    <g filter="url(#filter17_d)">
        <path d="M1091.35 547.082C1094.25 545.406 1097.26 544.23 1100.36 543.555C1103.5 542.862 1106.55 542.706 1109.5 543.087C1112.46 543.468 1115.18 544.376 1117.67 545.811C1120.12 547.228 1121.7 548.799 1122.39 550.525C1123.05 552.232 1122.78 553.991 1121.58 555.803C1120.41 557.597 1118.37 559.331 1115.47 561.008L1107.91 565.373L1117.69 571.021L1111.47 574.613L1077.56 555.039L1091.35 547.082ZM1109.85 558.097C1112.57 556.532 1114.04 555.008 1114.28 553.527C1114.53 552.045 1113.56 550.68 1111.4 549.431C1109.24 548.182 1106.87 547.627 1104.31 547.766C1101.74 547.905 1099.1 548.758 1096.39 550.324L1089.11 554.523L1102.58 562.297L1109.85 558.097Z" fill="#505561"/>
        <path d="M1157.07 548.85C1154.48 550.342 1151.61 551.573 1148.44 552.545C1145.3 553.497 1142.42 554.025 1139.79 554.127L1137.05 550.059C1139.52 549.901 1142.1 549.456 1144.79 548.724C1147.48 547.955 1149.82 546.99 1151.83 545.83C1154.32 544.393 1155.77 543.092 1156.18 541.926C1156.61 540.742 1156.17 539.767 1154.84 539.003C1153.88 538.444 1152.73 538.189 1151.42 538.24C1150.1 538.254 1148.74 538.463 1147.33 538.866C1145.92 539.268 1144.08 539.864 1141.81 540.653C1138.65 541.773 1135.96 542.616 1133.75 543.182C1131.57 543.731 1129.27 543.964 1126.83 543.881C1124.39 543.761 1122.05 543.058 1119.82 541.772C1117.95 540.691 1116.75 539.427 1116.22 537.979C1115.69 536.495 1115.98 534.912 1117.09 533.23C1118.22 531.529 1120.26 529.831 1123.2 528.136C1125.24 526.958 1127.51 525.946 1130 525.103C1132.5 524.259 1134.95 523.702 1137.35 523.433L1140.28 527.39C1137.94 527.734 1135.75 528.236 1133.7 528.895C1131.65 529.555 1129.88 530.318 1128.38 531.184C1125.92 532.602 1124.51 533.904 1124.13 535.088C1123.79 536.255 1124.32 537.239 1125.71 538.04C1126.67 538.599 1127.8 538.863 1129.08 538.83C1130.4 538.779 1131.76 538.552 1133.17 538.149C1134.58 537.747 1136.42 537.151 1138.69 536.362C1141.76 535.261 1144.41 534.436 1146.65 533.888C1148.86 533.321 1151.17 533.088 1153.58 533.189C1156.02 533.272 1158.34 533.947 1160.53 535.215C1162.41 536.296 1163.59 537.569 1164.09 539.035C1164.62 540.482 1164.31 542.056 1163.18 543.757C1162.04 545.458 1160 547.155 1157.07 548.85Z" fill="#505561"/>
        <path d="M1190.18 520.116L1173.43 529.786L1177.97 536.223L1171.56 539.925L1152.73 511.648L1158.85 508.111L1207.88 518.954L1201.37 522.712L1190.18 520.116ZM1183.18 518.452L1162.04 513.542L1170.59 525.718L1183.18 518.452Z" fill="#505561"/>
        <path d="M1234.06 503.841L1217.29 502.059C1217.03 502.244 1216.62 502.502 1216.04 502.833L1208.48 507.199L1218.36 512.903L1212.14 516.495L1178.24 496.921L1192.02 488.963C1194.92 487.287 1197.93 486.112 1201.03 485.437C1204.17 484.744 1207.22 484.587 1210.18 484.968C1213.13 485.349 1215.86 486.257 1218.34 487.693C1220.89 489.165 1222.47 490.792 1223.06 492.573C1223.69 494.336 1223.31 496.141 1221.92 497.989L1240.76 499.973L1234.06 503.841ZM1212.07 491.312C1209.91 490.063 1207.54 489.508 1204.98 489.648C1202.41 489.787 1199.77 490.64 1197.06 492.205L1189.79 496.405L1203.3 504.206L1210.57 500.007C1213.29 498.441 1214.76 496.918 1215.01 495.436C1215.21 493.936 1214.24 492.561 1212.07 491.312Z" fill="#505561"/>
    </g>
    <defs>
        <filter id="filter0_f" x="297.001" y="0" width="1120.71" height="1121.83" filterUnits="userSpaceOnUse" color-interpolation-filters="sRGB">
            <feFlood flood-opacity="0" result="BackgroundImageFix"/>
            <feBlend mode="normal" in="SourceGraphic" in2="BackgroundImageFix" result="shape"/>
            <feGaussianBlur stdDeviation="75" result="effect1_foregroundBlur"/>
        </filter>
        <filter id="filter1_dddddd" x="0.992188" y="291.406" width="1456.38" height="928.398" filterUnits="userSpaceOnUse" color-interpolation-filters="sRGB">
            <feFlood flood-opacity="0" result="BackgroundImageFix"/>
            <feColorMatrix in="SourceAlpha" type="matrix" values="0 0 0 0 0 0 0 0 0 0 0 0 0 0 0 0 0 0 127 0"/>
            <feOffset dy="2.76726"/>
            <feGaussianBlur stdDeviation="1.1069"/>
            <feColorMatrix type="matrix" values="0 0 0 0 0 0 0 0 0 0 0 0 0 0 0 0 0 0 0.216482 0"/>
            <feBlend mode="normal" in2="BackgroundImageFix" result="effect1_dropShadow"/>
            <feColorMatrix in="SourceAlpha" type="matrix" values="0 0 0 0 0 0 0 0 0 0 0 0 0 0 0 0 0 0 127 0"/>
            <feOffset dy="6.6501"/>
            <feGaussianBlur stdDeviation="2.66004"/>
            <feColorMatrix type="matrix" values="0 0 0 0 0 0 0 0 0 0 0 0 0 0 0 0 0 0 0.310997 0"/>
            <feBlend mode="normal" in2="effect1_dropShadow" result="effect2_dropShadow"/>
            <feColorMatrix in="SourceAlpha" type="matrix" values="0 0 0 0 0 0 0 0 0 0 0 0 0 0 0 0 0 0 127 0"/>
            <feOffset dy="12.5216"/>
            <feGaussianBlur stdDeviation="5.00862"/>
            <feColorMatrix type="matrix" values="0 0 0 0 0 0 0 0 0 0 0 0 0 0 0 0 0 0 0.385 0"/>
            <feBlend mode="normal" in2="effect2_dropShadow" result="effect3_dropShadow"/>
            <feColorMatrix in="SourceAlpha" type="matrix" values="0 0 0 0 0 0 0 0 0 0 0 0 0 0 0 0 0 0 127 0"/>
            <feOffset dy="22.3363"/>
            <feGaussianBlur stdDeviation="8.93452"/>
            <feColorMatrix type="matrix" values="0 0 0 0 0 0 0 0 0 0 0 0 0 0 0 0 0 0 0.459003 0"/>
            <feBlend mode="normal" in2="effect3_dropShadow" result="effect4_dropShadow"/>
            <feColorMatrix in="SourceAlpha" type="matrix" values="0 0 0 0 0 0 0 0 0 0 0 0 0 0 0 0 0 0 127 0"/>
            <feOffset dy="41.7776"/>
            <feGaussianBlur stdDeviation="16.711"/>
            <feColorMatrix type="matrix" values="0 0 0 0 0 0 0 0 0 0 0 0 0 0 0 0 0 0 0.553518 0"/>
            <feBlend mode="normal" in2="effect4_dropShadow" result="effect5_dropShadow"/>
            <feColorMatrix in="SourceAlpha" type="matrix" values="0 0 0 0 0 0 0 0 0 0 0 0 0 0 0 0 0 0 127 0"/>
            <feOffset dy="100"/>
            <feGaussianBlur stdDeviation="40"/>
            <feColorMatrix type="matrix" values="0 0 0 0 0 0 0 0 0 0 0 0 0 0 0 0 0 0 0.77 0"/>
            <feBlend mode="normal" in2="effect5_dropShadow" result="effect6_dropShadow"/>
            <feBlend mode="normal" in="SourceGraphic" in2="effect6_dropShadow" result="shape"/>
        </filter>
        <filter id="filter2_d" x="207.301" y="587.418" width="419.914" height="255.092" filterUnits="userSpaceOnUse" color-interpolation-filters="sRGB">
            <feFlood flood-opacity="0" result="BackgroundImageFix"/>
            <feColorMatrix in="SourceAlpha" type="matrix" values="0 0 0 0 0 0 0 0 0 0 0 0 0 0 0 0 0 0 127 0"/>
            <feOffset dy="15"/>
            <feGaussianBlur stdDeviation="7.5"/>
            <feColorMatrix type="matrix" values="0 0 0 0 1 0 0 0 0 1 0 0 0 0 1 0 0 0 0.4 0"/>
            <feBlend mode="normal" in2="BackgroundImageFix" result="effect1_dropShadow"/>
            <feBlend mode="normal" in="SourceGraphic" in2="effect1_dropShadow" result="shape"/>
        </filter>
        <filter id="filter3_d" x="1206.77" y="498.831" width="173.573" height="112.885" filterUnits="userSpaceOnUse" color-interpolation-filters="sRGB">
            <feFlood flood-opacity="0" result="BackgroundImageFix"/>
            <feColorMatrix in="SourceAlpha" type="matrix" values="0 0 0 0 0 0 0 0 0 0 0 0 0 0 0 0 0 0 127 0"/>
            <feOffset dy="15"/>
            <feGaussianBlur stdDeviation="7.5"/>
            <feColorMatrix type="matrix" values="0 0 0 0 0.917647 0 0 0 0 0.443137 0 0 0 0 0.172549 0 0 0 1 0"/>
            <feBlend mode="normal" in2="BackgroundImageFix" result="effect1_dropShadow"/>
            <feBlend mode="normal" in="SourceGraphic" in2="effect1_dropShadow" result="shape"/>
        </filter>
        <filter id="filter4_d" x="1057.06" y="585.744" width="172.739" height="112.403" filterUnits="userSpaceOnUse" color-interpolation-filters="sRGB">
            <feFlood flood-opacity="0" result="BackgroundImageFix"/>
            <feColorMatrix in="SourceAlpha" type="matrix" values="0 0 0 0 0 0 0 0 0 0 0 0 0 0 0 0 0 0 127 0"/>
            <feOffset dy="15"/>
            <feGaussianBlur stdDeviation="7.5"/>
            <feColorMatrix type="matrix" values="0 0 0 0 0.917647 0 0 0 0 0.443137 0 0 0 0 0.172549 0 0 0 1 0"/>
            <feBlend mode="normal" in2="BackgroundImageFix" result="effect1_dropShadow"/>
            <feBlend mode="normal" in="SourceGraphic" in2="effect1_dropShadow" result="shape"/>
        </filter>
        <filter id="filter5_d" x="908.199" y="671.679" width="172.739" height="112.403" filterUnits="userSpaceOnUse" color-interpolation-filters="sRGB">
            <feFlood flood-opacity="0" result="BackgroundImageFix"/>
            <feColorMatrix in="SourceAlpha" type="matrix" values="0 0 0 0 0 0 0 0 0 0 0 0 0 0 0 0 0 0 127 0"/>
            <feOffset dy="15"/>
            <feGaussianBlur stdDeviation="7.5"/>
            <feColorMatrix type="matrix" values="0 0 0 0 0.105882 0 0 0 0 0.772549 0 0 0 0 0.235294 0 0 0 1 0"/>
            <feBlend mode="normal" in2="BackgroundImageFix" result="effect1_dropShadow"/>
            <feBlend mode="normal" in="SourceGraphic" in2="effect1_dropShadow" result="shape"/>
        </filter>
        <filter id="filter6_d" x="758.501" y="757.619" width="173.573" height="112.885" filterUnits="userSpaceOnUse" color-interpolation-filters="sRGB">
            <feFlood flood-opacity="0" result="BackgroundImageFix"/>
            <feColorMatrix in="SourceAlpha" type="matrix" values="0 0 0 0 0 0 0 0 0 0 0 0 0 0 0 0 0 0 127 0"/>
            <feOffset dy="15"/>
            <feGaussianBlur stdDeviation="7.5"/>
            <feColorMatrix type="matrix" values="0 0 0 0 0.105882 0 0 0 0 0.772549 0 0 0 0 0.235294 0 0 0 1 0"/>
            <feBlend mode="normal" in2="BackgroundImageFix" result="effect1_dropShadow"/>
            <feBlend mode="normal" in="SourceGraphic" in2="effect1_dropShadow" result="shape"/>
        </filter>
        <filter id="filter7_d" x="610.486" y="843.549" width="172.739" height="112.403" filterUnits="userSpaceOnUse" color-interpolation-filters="sRGB">
            <feFlood flood-opacity="0" result="BackgroundImageFix"/>
            <feColorMatrix in="SourceAlpha" type="matrix" values="0 0 0 0 0 0 0 0 0 0 0 0 0 0 0 0 0 0 127 0"/>
            <feOffset dy="15"/>
            <feGaussianBlur stdDeviation="7.5"/>
            <feColorMatrix type="matrix" values="0 0 0 0 0.105882 0 0 0 0 0.772549 0 0 0 0 0.235294 0 0 0 1 0"/>
            <feBlend mode="normal" in2="BackgroundImageFix" result="effect1_dropShadow"/>
            <feBlend mode="normal" in="SourceGraphic" in2="effect1_dropShadow" result="shape"/>
        </filter>
        <filter id="filter8_d" x="459.095" y="929.984" width="174.406" height="113.366" filterUnits="userSpaceOnUse" color-interpolation-filters="sRGB">
            <feFlood flood-opacity="0" result="BackgroundImageFix"/>
            <feColorMatrix in="SourceAlpha" type="matrix" values="0 0 0 0 0 0 0 0 0 0 0 0 0 0 0 0 0 0 127 0"/>
            <feOffset dy="15"/>
            <feGaussianBlur stdDeviation="7.5"/>
            <feColorMatrix type="matrix" values="0 0 0 0 0.105882 0 0 0 0 0.772549 0 0 0 0 0.235294 0 0 0 1 0"/>
            <feBlend mode="normal" in2="BackgroundImageFix" result="effect1_dropShadow"/>
            <feBlend mode="normal" in="SourceGraphic" in2="effect1_dropShadow" result="shape"/>
        </filter>
        <filter id="filter9_d" x="293.532" y="623.213" width="475.327" height="284.345" filterUnits="userSpaceOnUse" color-interpolation-filters="sRGB">
            <feFlood flood-opacity="0" result="BackgroundImageFix"/>
            <feColorMatrix in="SourceAlpha" type="matrix" values="0 0 0 0 0 0 0 0 0 0 0 0 0 0 0 0 0 0 127 0"/>
            <feOffset dy="15"/>
            <feGaussianBlur stdDeviation="7.5"/>
            <feColorMatrix type="matrix" values="0 0 0 0 0.105882 0 0 0 0 0.772549 0 0 0 0 0.235294 0 0 0 0.4 0"/>
            <feBlend mode="normal" in2="BackgroundImageFix" result="effect1_dropShadow"/>
            <feBlend mode="normal" in="SourceGraphic" in2="effect1_dropShadow" result="shape"/>
        </filter>
        <filter id="filter10_d" x="1011.62" y="425.454" width="145.184" height="96.4955" filterUnits="userSpaceOnUse" color-interpolation-filters="sRGB">
            <feFlood flood-opacity="0" result="BackgroundImageFix"/>
            <feColorMatrix in="SourceAlpha" type="matrix" values="0 0 0 0 0 0 0 0 0 0 0 0 0 0 0 0 0 0 127 0"/>
            <feOffset dy="15"/>
            <feGaussianBlur stdDeviation="7.5"/>
            <feColorMatrix type="matrix" values="0 0 0 0 0.105882 0 0 0 0 0.772549 0 0 0 0 0.235294 0 0 0 0.4 0"/>
            <feBlend mode="normal" in2="BackgroundImageFix" result="effect1_dropShadow"/>
            <feBlend mode="normal" in="SourceGraphic" in2="effect1_dropShadow" result="shape"/>
        </filter>
        <filter id="filter11_d" x="857.909" y="402.285" width="120.073" height="92.3121" filterUnits="userSpaceOnUse" color-interpolation-filters="sRGB">
            <feFlood flood-opacity="0" result="BackgroundImageFix"/>
            <feColorMatrix in="SourceAlpha" type="matrix" values="0 0 0 0 0 0 0 0 0 0 0 0 0 0 0 0 0 0 127 0"/>
            <feOffset dy="15"/>
            <feGaussianBlur stdDeviation="7.5"/>
            <feColorMatrix type="matrix" values="0 0 0 0 1 0 0 0 0 1 0 0 0 0 1 0 0 0 0.4 0"/>
            <feBlend mode="normal" in2="BackgroundImageFix" result="effect1_dropShadow"/>
            <feBlend mode="normal" in="SourceGraphic" in2="effect1_dropShadow" result="shape"/>
        </filter>
        <filter id="filter12_d" x="525.24" y="811.407" width="148.947" height="92.8838" filterUnits="userSpaceOnUse" color-interpolation-filters="sRGB">
            <feFlood flood-opacity="0" result="BackgroundImageFix"/>
            <feColorMatrix in="SourceAlpha" type="matrix" values="0 0 0 0 0 0 0 0 0 0 0 0 0 0 0 0 0 0 127 0"/>
            <feOffset dy="10"/>
            <feGaussianBlur stdDeviation="5"/>
            <feColorMatrix type="matrix" values="0 0 0 0 0 0 0 0 0 0 0 0 0 0 0 0 0 0 0.6 0"/>
            <feBlend mode="normal" in2="BackgroundImageFix" result="effect1_dropShadow"/>
            <feBlend mode="normal" in="SourceGraphic" in2="effect1_dropShadow" result="shape"/>
        </filter>
        <filter id="filter13_d" x="447.755" y="885.697" width="101.799" height="67.2224" filterUnits="userSpaceOnUse" color-interpolation-filters="sRGB">
            <feFlood flood-opacity="0" result="BackgroundImageFix"/>
            <feColorMatrix in="SourceAlpha" type="matrix" values="0 0 0 0 0 0 0 0 0 0 0 0 0 0 0 0 0 0 127 0"/>
            <feOffset dy="10"/>
            <feGaussianBlur stdDeviation="5"/>
            <feColorMatrix type="matrix" values="0 0 0 0 0 0 0 0 0 0 0 0 0 0 0 0 0 0 0.6 0"/>
            <feBlend mode="normal" in2="BackgroundImageFix" result="effect1_dropShadow"/>
            <feBlend mode="normal" in="SourceGraphic" in2="effect1_dropShadow" result="shape"/>
        </filter>
        <filter id="filter14_d" x="691.169" y="744.833" width="102.391" height="67.5646" filterUnits="userSpaceOnUse" color-interpolation-filters="sRGB">
            <feFlood flood-opacity="0" result="BackgroundImageFix"/>
            <feColorMatrix in="SourceAlpha" type="matrix" values="0 0 0 0 0 0 0 0 0 0 0 0 0 0 0 0 0 0 127 0"/>
            <feOffset dy="10"/>
            <feGaussianBlur stdDeviation="5"/>
            <feColorMatrix type="matrix" values="0 0 0 0 0 0 0 0 0 0 0 0 0 0 0 0 0 0 0.6 0"/>
            <feBlend mode="normal" in2="BackgroundImageFix" result="effect1_dropShadow"/>
            <feBlend mode="normal" in="SourceGraphic" in2="effect1_dropShadow" result="shape"/>
        </filter>
        <filter id="filter15_d" x="771.936" y="658.774" width="183.671" height="107.224" filterUnits="userSpaceOnUse" color-interpolation-filters="sRGB">
            <feFlood flood-opacity="0" result="BackgroundImageFix"/>
            <feColorMatrix in="SourceAlpha" type="matrix" values="0 0 0 0 0 0 0 0 0 0 0 0 0 0 0 0 0 0 127 0"/>
            <feOffset dy="10"/>
            <feGaussianBlur stdDeviation="5"/>
            <feColorMatrix type="matrix" values="0 0 0 0 0 0 0 0 0 0 0 0 0 0 0 0 0 0 0.6 0"/>
            <feBlend mode="normal" in2="BackgroundImageFix" result="effect1_dropShadow"/>
            <feBlend mode="normal" in="SourceGraphic" in2="effect1_dropShadow" result="shape"/>
        </filter>
        <filter id="filter16_d" x="997.073" y="580.638" width="79.2025" height="54.1776" filterUnits="userSpaceOnUse" color-interpolation-filters="sRGB">
            <feFlood flood-opacity="0" result="BackgroundImageFix"/>
            <feColorMatrix in="SourceAlpha" type="matrix" values="0 0 0 0 0 0 0 0 0 0 0 0 0 0 0 0 0 0 127 0"/>
            <feOffset dy="10"/>
            <feGaussianBlur stdDeviation="5"/>
            <feColorMatrix type="matrix" values="0 0 0 0 0 0 0 0 0 0 0 0 0 0 0 0 0 0 0.6 0"/>
            <feBlend mode="normal" in2="BackgroundImageFix" result="effect1_dropShadow"/>
            <feBlend mode="normal" in="SourceGraphic" in2="effect1_dropShadow" result="shape"/>
        </filter>
        <filter id="filter17_d" x="1067.56" y="484.766" width="183.199" height="109.847" filterUnits="userSpaceOnUse" color-interpolation-filters="sRGB">
            <feFlood flood-opacity="0" result="BackgroundImageFix"/>
            <feColorMatrix in="SourceAlpha" type="matrix" values="0 0 0 0 0 0 0 0 0 0 0 0 0 0 0 0 0 0 127 0"/>
            <feOffset dy="10"/>
            <feGaussianBlur stdDeviation="5"/>
            <feColorMatrix type="matrix" values="0 0 0 0 0 0 0 0 0 0 0 0 0 0 0 0 0 0 0.6 0"/>
            <feBlend mode="normal" in2="BackgroundImageFix" result="effect1_dropShadow"/>
            <feBlend mode="normal" in="SourceGraphic" in2="effect1_dropShadow" result="shape"/>
        </filter>
        <linearGradient id="paint0_linear" x1="972.156" y1="264.448" x2="742.555" y2="857.377" gradientUnits="userSpaceOnUse">
            <stop stop-color="white"/>
            <stop offset="1" stop-color="#009BE0" stop-opacity="0.46"/>
        </linearGradient>
    </defs>
</svg>
