<svg xmlns="http://www.w3.org/2000/svg" display="none">

    <symbol id="fb" viewBox="0 0 18 18">
        <g>
            <path d="M16.5 0H1.5C0.67125 0 0 0.67125 0 1.5V16.5C0 17.3288 0.67125 18 1.5 18H9.75V11.25H7.5V8.25H9.75V6.30975C9.75 3.98475 11.1698 2.71875 13.2443 2.71875C14.238 2.71875 15.0915 2.793 15.3405 2.826V5.256L13.902 5.25675C12.774 5.25675 12.5557 5.793 12.5557 6.579V8.25H15.8857L15.1357 11.25H12.5557V18H16.5C17.3288 18 18 17.3288 18 16.5V1.5C18 0.67125 17.3288 0 16.5 0Z"
                  fill="#988FF2"/>
        </g>
    </symbol>

    <symbol id="fb2" viewBox="0 0 18 18">
        <g>
            <path d="M16.5 0H1.5C0.67125 0 0 0.67125 0 1.5V16.5C0 17.3288 0.67125 18 1.5 18H9.75V11.25H7.5V8.25H9.75V6.30975C9.75 3.98475 11.1698 2.71875 13.2443 2.71875C14.238 2.71875 15.0915 2.793 15.3405 2.826V5.256L13.902 5.25675C12.774 5.25675 12.5557 5.793 12.5557 6.579V8.25H15.8857L15.1357 11.25H12.5557V18H16.5C17.3288 18 18 17.3288 18 16.5V1.5C18 0.67125 17.3288 0 16.5 0Z"
                  fill="#1AA3E0"/>
        </g>
    </symbol>

    <symbol id="twitter" viewBox="0 0 18 18">
        <g>
            <path d="M18 3.44961C17.325 3.74961 16.65 3.97461 15.9 4.04961C16.65 3.59961 17.25 2.84961 17.55 2.02461C16.8 2.47461 16.05 2.77461 15.225 2.92461C14.55 2.17461 13.575 1.72461 12.525 1.72461C10.5 1.72461 8.85 3.37461 8.85 5.39961C8.85 5.69961 8.85 5.99961 8.925 6.22461C5.775 6.07461 3.075 4.57461 1.275 2.32461C0.9 2.92461 0.75 3.52461 0.75 4.19961C0.75 5.47461 1.425 6.59961 2.4 7.27461C1.8 7.27461 1.2 7.12461 0.75 6.82461C0.75 6.82461 0.75 6.82461 0.75 6.89961C0.75 8.69961 2.025 10.1996 3.675 10.4996C3.375 10.5746 3.075 10.6496 2.7 10.6496C2.475 10.6496 2.25 10.6496 2.025 10.5746C2.475 12.0746 3.825 13.1246 5.475 13.1246C4.2 14.0996 2.625 14.6996 0.9 14.6996C0.6 14.6996 0.3 14.6996 0 14.6246C1.65 15.6746 3.6 16.2746 5.625 16.2746C12.45 16.2746 16.125 10.6496 16.125 5.77461C16.125 5.62461 16.125 5.47461 16.125 5.32461C16.875 4.79961 17.475 4.12461 18 3.44961Z"
                  fill="#988FF2"/>
        </g>
    </symbol>

    <symbol id="twitter2" viewBox="0 0 18 18">
        <g>
            <path d="M18 3.44961C17.325 3.74961 16.65 3.97461 15.9 4.04961C16.65 3.59961 17.25 2.84961 17.55 2.02461C16.8 2.47461 16.05 2.77461 15.225 2.92461C14.55 2.17461 13.575 1.72461 12.525 1.72461C10.5 1.72461 8.85 3.37461 8.85 5.39961C8.85 5.69961 8.85 5.99961 8.925 6.22461C5.775 6.07461 3.075 4.57461 1.275 2.32461C0.9 2.92461 0.75 3.52461 0.75 4.19961C0.75 5.47461 1.425 6.59961 2.4 7.27461C1.8 7.27461 1.2 7.12461 0.75 6.82461C0.75 6.82461 0.75 6.82461 0.75 6.89961C0.75 8.69961 2.025 10.1996 3.675 10.4996C3.375 10.5746 3.075 10.6496 2.7 10.6496C2.475 10.6496 2.25 10.6496 2.025 10.5746C2.475 12.0746 3.825 13.1246 5.475 13.1246C4.2 14.0996 2.625 14.6996 0.9 14.6996C0.6 14.6996 0.3 14.6996 0 14.6246C1.65 15.6746 3.6 16.2746 5.625 16.2746C12.45 16.2746 16.125 10.6496 16.125 5.77461C16.125 5.62461 16.125 5.47461 16.125 5.32461C16.875 4.79961 17.475 4.12461 18 3.44961Z"
                  fill="#1AA3E0"/>
        </g>
    </symbol>

    <symbol id="youtube" viewBox="0 0 18 18">
        <g>
            <path d="M17.85 5.39922C17.85 5.39922 17.7 4.12422 17.1 3.59922C16.425 2.84922 15.675 2.84922 15.3 2.84922C12.75 2.69922 9 2.69922 9 2.69922C9 2.69922 5.25 2.69922 2.7 2.84922C2.325 2.92422 1.575 2.92422 0.9 3.59922C0.375 4.12422 0.15 5.39922 0.15 5.39922C0.15 5.39922 0 6.82422 0 8.32422V9.67422C0 11.0992 0.15 12.5992 0.15 12.5992C0.15 12.5992 0.3 13.8742 0.9 14.3992C1.575 15.1492 2.475 15.0742 2.85 15.1492C4.275 15.2992 9 15.2992 9 15.2992C9 15.2992 12.75 15.2992 15.3 15.0742C15.675 14.9992 16.425 14.9992 17.1 14.3242C17.625 13.7992 17.85 12.5242 17.85 12.5242C17.85 12.5242 18 11.0992 18 9.59922V8.24922C18 6.82422 17.85 5.39922 17.85 5.39922ZM7.125 11.3242V6.29922L12 8.84922L7.125 11.3242Z"
                  fill="#988FF2"/>
        </g>
    </symbol>

    <symbol id="youtube2" viewBox="0 0 18 18">
        <g>
            <path d="M17.85 5.39922C17.85 5.39922 17.7 4.12422 17.1 3.59922C16.425 2.84922 15.675 2.84922 15.3 2.84922C12.75 2.69922 9 2.69922 9 2.69922C9 2.69922 5.25 2.69922 2.7 2.84922C2.325 2.92422 1.575 2.92422 0.9 3.59922C0.375 4.12422 0.15 5.39922 0.15 5.39922C0.15 5.39922 0 6.82422 0 8.32422V9.67422C0 11.0992 0.15 12.5992 0.15 12.5992C0.15 12.5992 0.3 13.8742 0.9 14.3992C1.575 15.1492 2.475 15.0742 2.85 15.1492C4.275 15.2992 9 15.2992 9 15.2992C9 15.2992 12.75 15.2992 15.3 15.0742C15.675 14.9992 16.425 14.9992 17.1 14.3242C17.625 13.7992 17.85 12.5242 17.85 12.5242C17.85 12.5242 18 11.0992 18 9.59922V8.24922C18 6.82422 17.85 5.39922 17.85 5.39922ZM7.125 11.3242V6.29922L12 8.84922L7.125 11.3242Z"
                  fill="#1AA3E0"/>
        </g>
    </symbol>

    <symbol id="arrow-scroll" viewBox="0 0 8 28">
        <g>
            <path d="M3.64645 27.3536C3.84171 27.5488 4.15829 27.5488 4.35355 27.3536L7.53553 24.1716C7.7308 23.9763 7.7308 23.6597 7.53553 23.4645C7.34027 23.2692 7.02369 23.2692 6.82843 23.4645L4 26.2929L1.17157 23.4645C0.976311 23.2692 0.659728 23.2692 0.464466 23.4645C0.269204 23.6597 0.269204 23.9763 0.464466 24.1716L3.64645 27.3536ZM3.5 0V27H4.5V0H3.5Z"
                  fill="white"/>

        </g>
    </symbol>

    <symbol id="edit" viewBox="0 0 64 64">
        <g>
            <path d="M2 32H32" stroke="white" stroke-width="2" stroke-miterlimit="10" stroke-linecap="round"
                  stroke-linejoin="round"/>
            <path d="M24 24L32 32L24 40" stroke="white" stroke-width="2" stroke-miterlimit="10" stroke-linecap="round"
                  stroke-linejoin="round"/>
            <path d="M12 40V56C12 57.5913 12.6321 59.1174 13.7574 60.2426C14.8826 61.3679 16.4087 62 18 62H46C47.5913 62 49.1174 61.3679 50.2426 60.2426C51.3679 59.1174 52 57.5913 52 56V8C52 6.4087 51.3679 4.88258 50.2426 3.75736C49.1174 2.63214 47.5913 2 46 2H18C16.4087 2 14.8826 2.63214 13.7574 3.75736C12.6321 4.88258 12 6.4087 12 8V24"
                  stroke="white" stroke-width="2" stroke-miterlimit="10" stroke-linecap="round"
                  stroke-linejoin="round"/>
        </g>
    </symbol>

    <symbol id="check-list" viewBox="0 0 64 64">
        <g>
            <path d="M34 16H60" stroke="white" stroke-width="2" stroke-miterlimit="10" stroke-linecap="round"
                  stroke-linejoin="round"/>
            <path d="M24 6H4V26H24V6Z" stroke="white" stroke-width="2" stroke-miterlimit="10" stroke-linecap="round"
                  stroke-linejoin="round"/>
            <path d="M34 48H60" stroke="white" stroke-width="2" stroke-miterlimit="10" stroke-linecap="round"
                  stroke-linejoin="round"/>
            <path d="M4 48L10 54L24 38" stroke="white" stroke-width="2" stroke-miterlimit="10" stroke-linecap="round"
                  stroke-linejoin="round"/>

        </g>
    </symbol>
    <symbol id="reading" viewBox="0 0 64 64">
        <g>
            <path d="M46 60L31.888 62L18 60V38L31.888 40L46 38V60Z" stroke="white" stroke-width="2"
                  stroke-miterlimit="10" stroke-linecap="round" stroke-linejoin="round"/>
            <path d="M31.8867 22C29.2346 22 26.691 20.9464 24.8157 19.0711C22.9403 17.1957 21.8867 14.6522 21.8867 12V12C21.8867 9.34784 22.9403 6.8043 24.8157 4.92893C26.691 3.05357 29.2346 2 31.8867 2V2C33.1999 2 34.5003 2.25866 35.7136 2.7612C36.9268 3.26375 38.0292 4.00035 38.9578 4.92893C39.8864 5.85752 40.623 6.95991 41.1255 8.17317C41.6281 9.38642 41.8867 10.6868 41.8867 12V12C41.8867 14.6522 40.8332 17.1957 38.9578 19.0711C37.0824 20.9464 34.5389 22 31.8867 22V22Z"
                  stroke="white" stroke-width="2" stroke-miterlimit="10" stroke-linecap="round"
                  stroke-linejoin="round"/>
            <path d="M25.9992 50L6.04924 54.988C5.68319 55.0795 5.29874 55.0655 4.94028 54.9478C4.58183 54.83 4.26399 54.6133 4.02348 54.3226C3.78297 54.0318 3.62959 53.679 3.58106 53.3049C3.53254 52.9307 3.59084 52.5504 3.74924 52.208L12.9272 32.324C13.2474 31.6302 13.7596 31.0426 14.4033 30.6307C15.0469 30.2189 15.7951 30 16.5592 30H47.4292C48.1957 29.9999 48.9461 30.22 49.591 30.6341C50.236 31.0483 50.7484 31.639 51.0672 32.336L60.1572 52.214C60.3141 52.5567 60.3709 52.9367 60.3212 53.3102C60.2714 53.6838 60.1172 54.0357 59.8762 54.3254C59.6352 54.6151 59.3172 54.8308 58.959 54.9477C58.6007 55.0646 58.2167 55.0778 57.8512 54.986L37.9992 50"
                  stroke="white" stroke-width="2" stroke-miterlimit="10" stroke-linecap="round"
                  stroke-linejoin="round"/>

        </g>
    </symbol>

    <symbol id="about1" viewBox="0 0 60 60">
        <g>
            <path d="M7.49316 28.7151C7.49316 31.1748 9.49414 33.1758 11.9538 33.1758C14.4134 33.1758 16.4144 31.1748 16.4144 28.7151C16.4144 26.2555 14.4134 24.2544 11.9538 24.2544C9.49414 24.2544 7.49316 26.2555 7.49316 28.7151ZM14.0707 28.7151C14.0707 29.8823 13.121 30.832 11.9538 30.832C10.7866 30.832 9.83691 29.8823 9.83691 28.7151C9.83691 27.5478 10.7866 26.5983 11.9538 26.5983C13.121 26.5983 14.0707 27.5478 14.0707 28.7151Z"
                  fill="#1AA3E0"/>
            <path d="M23.9062 37.2656V33.9887C23.9062 33.3415 23.3815 32.8168 22.7344 32.8168C22.0873 32.8168 21.5625 33.3415 21.5625 33.9887V37.2656C21.5625 37.9118 21.0368 38.4375 20.3906 38.4375H3.51562C2.86945 38.4375 2.34375 37.9118 2.34375 37.2656V19.2188H21.5625V23.4418C21.5625 24.0891 22.0873 24.6137 22.7344 24.6137C23.3815 24.6137 23.9062 24.0891 23.9062 23.4418V3.51562C23.9062 1.57711 22.3291 0 20.3906 0H3.51562C1.57711 0 0 1.57711 0 3.51562V37.2656C0 39.2041 1.57711 40.7812 3.51562 40.7812H20.3906C22.3291 40.7812 23.9062 39.2041 23.9062 37.2656ZM21.5625 11.25H2.34375V7.96875H21.5625V11.25ZM2.34375 16.875V13.5938H21.5625V16.875H2.34375ZM3.51562 2.34375H20.3906C21.0368 2.34375 21.5625 2.86945 21.5625 3.51562V5.625H2.34375V3.51562C2.34375 2.86945 2.86945 2.34375 3.51562 2.34375Z"
                  fill="#1AA3E0"/>
            <path d="M48.0475 43.4731C45.5879 43.4731 43.5869 45.4742 43.5869 47.9338C43.5869 50.3933 45.5879 52.3944 48.0475 52.3944C50.5072 52.3944 52.5082 50.3934 52.5082 47.9338C52.5082 45.4741 50.5072 43.4731 48.0475 43.4731ZM48.0475 50.0508C46.8802 50.0508 45.9307 49.1011 45.9307 47.9339C45.9307 46.7666 46.8804 45.817 48.0475 45.817C49.2147 45.817 50.1644 46.7667 50.1644 47.9339C50.1644 49.1011 49.2148 50.0508 48.0475 50.0508Z"
                  fill="#1AA3E0"/>
            <path d="M56.4844 19.2188H39.6094C37.6709 19.2188 36.0938 20.7959 36.0938 22.7344V56.4844C36.0938 58.4229 37.6709 60 39.6094 60H56.4844C58.4229 60 60 58.4229 60 56.4844V22.7344C60 20.7959 58.4229 19.2188 56.4844 19.2188ZM57.6562 30.4688H38.4375V27.1875H57.6562V30.4688ZM38.4375 32.8125H57.6562V36.0938H38.4375V32.8125ZM39.6094 21.5625H56.4844C57.1305 21.5625 57.6562 22.0882 57.6562 22.7344V24.8438H38.4375V22.7344C38.4375 22.0882 38.9632 21.5625 39.6094 21.5625ZM56.4844 57.6562H39.6094C38.9632 57.6562 38.4375 57.1305 38.4375 56.4844V38.4375H57.6562V56.4844C57.6562 57.1305 57.1305 57.6562 56.4844 57.6562Z"
                  fill="#1AA3E0"/>
            <path d="M28.3594 7.03125H46.875V11.9364L46.6935 11.7548C46.2358 11.2972 45.4941 11.2972 45.0361 11.7548C44.5785 12.2125 44.5785 12.9545 45.0361 13.4121L47.2181 15.5943C47.438 15.814 47.736 15.9375 48.0467 15.9375C48.3575 15.9375 48.6555 15.814 48.8754 15.5943L51.0574 13.4121C51.515 12.9545 51.515 12.2125 51.0574 11.7548C50.5997 11.2972 49.8579 11.2972 49.4 11.7548L49.2187 11.9364V5.85938C49.2187 5.21215 48.694 4.6875 48.0469 4.6875H28.3594C27.7123 4.6875 27.1875 5.21215 27.1875 5.85938C27.1875 6.5066 27.7123 7.03125 28.3594 7.03125Z"
                  fill="#1AA3E0"/>
            <path d="M31.641 52.9688H13.1254V48.0636L13.3069 48.2452C13.5358 48.474 13.8356 48.5884 14.1355 48.5884C14.4354 48.5884 14.7353 48.4739 14.9642 48.2452C15.4218 47.7875 15.4218 47.0455 14.9642 46.5879L12.7821 44.4057C12.5623 44.186 12.2643 44.0625 11.9535 44.0625C11.6427 44.0625 11.3447 44.186 11.1249 44.4057L8.94282 46.5879C8.48521 47.0455 8.48521 47.7875 8.94282 48.2452C9.40056 48.7028 10.1424 48.7028 10.6002 48.2452L10.7816 48.0636V54.1406C10.7816 54.7879 11.3064 55.3125 11.9535 55.3125H31.641C32.2881 55.3125 32.8129 54.7879 32.8129 54.1406C32.8129 53.4934 32.2881 52.9688 31.641 52.9688Z"
                  fill="#1AA3E0"/>
            <path d="M22.7344 27.5439C22.4262 27.5439 22.1238 27.6682 21.9059 27.8873C21.6879 28.1053 21.5625 28.4064 21.5625 28.7158C21.5625 29.024 21.6878 29.3264 21.9059 29.5443C22.1239 29.7623 22.4262 29.8877 22.7344 29.8877C23.0426 29.8877 23.3449 29.7623 23.5628 29.5443C23.7807 29.3264 23.9062 29.024 23.9062 28.7158C23.9062 28.4064 23.7809 28.1053 23.5628 27.8873C23.3449 27.6682 23.0426 27.5439 22.7344 27.5439Z"
                  fill="#1AA3E0"/>

        </g>
    </symbol>
    <symbol id="about2" viewBox="0 0 60 60">
        <g>
            <g clip-path="url(#clip0)">
                <path d="M56.4844 32.5781H52.0696V26.25C52.0696 24.5388 50.8404 23.11 49.2188 22.7982V10.5487C49.2188 8.22152 47.3254 6.32812 44.998 6.32812H29.8828C29.2357 6.32812 28.7109 6.85277 28.7109 7.5C28.7109 8.14723 29.2357 8.67188 29.8828 8.67188H44.998C46.033 8.67188 46.875 9.51387 46.875 10.5487V22.7344H31.6796C29.7411 22.7344 28.164 24.3115 28.164 26.25V33.6595H2.34375V10.5487C2.34375 9.51387 3.18574 8.67188 4.22074 8.67188H19.3359C19.983 8.67188 20.5078 8.14723 20.5078 7.5C20.5078 6.85277 19.983 6.32812 19.3359 6.32812H4.22074C1.8934 6.32812 0 8.22152 0 10.5487V37.4161C0 39.7433 1.8934 41.6368 4.22074 41.6368H18.6735V45.863C18.6735 48.1702 17.5071 50.2802 15.5535 51.5077C15.1112 51.7855 14.9062 52.3225 15.0507 52.8243C15.1952 53.3262 15.6545 53.6718 16.1768 53.6718H56.4844C58.4229 53.6718 60 52.0946 60 50.1561V36.0938C60 34.1552 58.4229 32.5781 56.4844 32.5781ZM31.6796 25.0781H48.5539C49.2001 25.0781 49.7258 25.6038 49.7258 26.25V32.5781H48.0469C46.1084 32.5781 44.5312 34.1552 44.5312 36.0938V50.1562C44.5312 50.5671 44.6027 50.9613 44.7328 51.3281H31.6796C31.0335 51.3281 30.5078 50.8024 30.5078 50.1562V26.25C30.5078 25.6038 31.0335 25.0781 31.6796 25.0781ZM2.34375 37.4161V36.0032H28.164V39.293H19.8454H4.22074C3.18574 39.2931 2.34375 38.4511 2.34375 37.4161ZM21.0172 45.863V41.6368H28.164V50.1562C28.164 50.5671 28.2355 50.9613 28.3656 51.3281H19.1779C20.358 49.7849 21.0172 47.8797 21.0172 45.863ZM57.6562 50.1562C57.6562 50.8024 57.1305 51.3281 56.4844 51.3281H48.0469C47.4007 51.3281 46.875 50.8024 46.875 50.1562V36.0938C46.875 35.4476 47.4007 34.9219 48.0469 34.9219H56.4844C57.1305 34.9219 57.6562 35.4476 57.6562 36.0938V50.1562Z"
                      fill="#1AA3E0"/>
                <path d="M6.79688 13.4316C6.14977 13.4316 5.625 13.9563 5.625 14.6035V27.7285C5.625 28.3757 6.14977 28.9004 6.79688 28.9004H17.1094C17.7565 28.9004 18.2812 28.3757 18.2812 27.7285V14.6035C18.2812 13.9563 17.7565 13.4316 17.1094 13.4316H6.79688ZM15.9375 26.5566H7.96875V15.7754H15.9375V26.5566Z"
                      fill="#1AA3E0"/>
                <path d="M22.7344 15.7754H34.5703C35.2174 15.7754 35.7422 15.2507 35.7422 14.6035C35.7422 13.9563 35.2174 13.4316 34.5703 13.4316H22.7344C22.0873 13.4316 21.5625 13.9563 21.5625 14.6035C21.5625 15.2507 22.0873 15.7754 22.7344 15.7754Z"
                      fill="#1AA3E0"/>
                <path d="M22.7344 27.0249C23.0426 27.0249 23.3449 26.9007 23.5628 26.6827C23.7807 26.4636 23.9062 26.1624 23.9062 25.853C23.9062 25.5448 23.7809 25.2425 23.5628 25.0245C23.3449 24.8065 23.0426 24.6812 22.7344 24.6812C22.4262 24.6812 22.1238 24.8065 21.9059 25.0245C21.6879 25.2425 21.5625 25.5448 21.5625 25.853C21.5625 26.1612 21.6878 26.4636 21.9059 26.6827C22.1238 26.9007 22.4262 27.0249 22.7344 27.0249Z"
                      fill="#1AA3E0"/>
                <path d="M22.7344 21.4004H27.1289C27.776 21.4004 28.3008 20.8757 28.3008 20.2285C28.3008 19.5813 27.776 19.0566 27.1289 19.0566H22.7344C22.0873 19.0566 21.5625 19.5813 21.5625 20.2285C21.5625 20.8757 22.0873 21.4004 22.7344 21.4004Z"
                      fill="#1AA3E0"/>
                <path d="M52.2656 46.6406C51.9574 46.6406 51.6551 46.7659 51.4371 46.984C51.2191 47.2021 51.0938 47.5043 51.0938 47.8125C51.0938 48.1207 51.219 48.423 51.4371 48.6409C51.6551 48.8589 51.9574 48.9844 52.2656 48.9844C52.5738 48.9844 52.8762 48.859 53.094 48.6409C53.3121 48.423 53.4375 48.1207 53.4375 47.8125C53.4375 47.5043 53.3121 47.202 53.094 46.984C52.8762 46.7659 52.5738 46.6406 52.2656 46.6406Z"
                      fill="#1AA3E0"/>
                <path d="M40.1172 48.9844C40.4254 48.9844 40.7277 48.859 40.9456 48.6409C41.1636 48.423 41.2891 48.1207 41.2891 47.8125C41.2891 47.5043 41.1637 47.202 40.9456 46.984C40.7277 46.766 40.4254 46.6406 40.1172 46.6406C39.809 46.6406 39.5066 46.7659 39.2887 46.984C39.0707 47.2021 38.9453 47.5043 38.9453 47.8125C38.9453 48.1207 39.0706 48.423 39.2887 48.6409C39.5066 48.859 39.809 48.9844 40.1172 48.9844Z"
                      fill="#1AA3E0"/>
                <path d="M24.6094 8.67188C24.9176 8.67188 25.2199 8.54648 25.4378 8.32852C25.6559 8.11055 25.7812 7.8082 25.7812 7.5C25.7812 7.1918 25.6559 6.88945 25.4378 6.67148C25.2199 6.45352 24.9176 6.32812 24.6094 6.32812C24.3012 6.32812 23.9988 6.45352 23.7809 6.67148C23.5629 6.88945 23.4375 7.1918 23.4375 7.5C23.4375 7.8082 23.5628 8.11055 23.7809 8.32852C23.9989 8.54648 24.3012 8.67188 24.6094 8.67188Z"
                      fill="#1AA3E0"/>
            </g>
            <defs>
                <clipPath id="clip0">
                    <rect width="60" height="60" fill="white"/>
                </clipPath>
            </defs>
        </g>
    </symbol>

    <symbol id="about3" viewBox="0 0 60 60">
        <g>
            <g clip-path="url(#clip0)">
                <path d="M59.3657 16.5411C59.3657 10.9645 54.8288 6.4275 49.2521 6.4275C48.7746 6.4275 48.3054 6.46313 47.8452 6.52746C42.8606 2.31434 36.5464 0 30.0003 0C23.4541 0 17.14 2.31434 12.1554 6.52758C11.6952 6.46324 11.2261 6.4275 10.7484 6.4275C5.17168 6.4275 0.634766 10.9644 0.634766 16.5411C0.634766 18.883 1.43703 21.0397 2.77824 22.7559C2.4909 24.3648 2.34406 26.0104 2.34406 27.6562C2.34406 30.6898 2.83227 33.6718 3.79531 36.5196C3.96043 37.0083 4.41652 37.3165 4.90531 37.3165C5.02977 37.3165 5.15645 37.2964 5.28078 37.2544C5.89379 37.0471 6.22285 36.382 6.01555 35.7689C5.13453 33.1635 4.68781 30.4341 4.68781 27.6562C4.68781 26.6849 4.74488 25.714 4.85469 24.7522C6.35234 25.8304 8.15445 26.5092 10.1061 26.6323C10.0887 26.9735 10.0784 27.3154 10.0784 27.6562C10.0784 35.1837 14.3002 42.0125 20.9387 45.4021C20.2667 46.7545 19.8868 48.2766 19.8868 49.8864C19.8868 50.2235 19.9041 50.5568 19.9366 50.8855C16.5581 49.4187 13.5157 47.2192 11.0523 44.4403C10.6229 43.9561 9.88215 43.9113 9.39793 44.3408C8.91359 44.7702 8.86906 45.5108 9.29832 45.995C12.3785 49.4695 16.2867 52.119 20.6291 53.6832C22.1337 57.3834 25.7662 60 30.0003 60C34.2341 60 37.8663 57.3839 39.3712 53.6843C50.3318 49.7418 57.6566 39.3523 57.6566 27.6562C57.6566 26.0104 57.5097 24.3648 57.2223 22.7559C58.5635 21.0398 59.3657 18.8831 59.3657 16.5411ZM35.4918 41.4002C36.1099 39.5747 36.5935 37.4229 36.9221 35.0781H45.9376C44.2746 38.6512 41.4271 41.6225 37.7734 43.4243C37.1204 42.6402 36.3505 41.9577 35.4918 41.4002ZM26.6299 40.3523C26.1307 38.811 25.7311 37.0227 25.4441 35.0781H34.557C34.2702 37.023 33.8702 38.8106 33.3706 40.3523C32.3157 39.9783 31.1818 39.7727 30.0003 39.7727C28.8187 39.7727 27.6848 39.9783 26.6299 40.3523ZM9.10789 15.5682C9.10789 14.6636 9.84383 13.9276 10.7485 13.9276C11.6532 13.9276 12.3891 14.6636 12.3891 15.5682C12.3891 16.4729 11.6532 17.2089 10.7485 17.2089C9.84383 17.2089 9.10789 16.4728 9.10789 15.5682ZM10.7485 19.5526C12.8225 19.5526 14.7031 20.7945 15.5465 22.6459C14.2243 23.6873 12.5584 24.3111 10.7485 24.3111C8.93867 24.3111 7.27273 23.6873 5.95051 22.6459C6.79367 20.794 8.67313 19.5526 10.7485 19.5526ZM20.2358 13.0378C22.0174 11.8432 23.9754 10.9972 26.0388 10.5239C25.4933 11.407 24.9611 12.5514 24.4692 14.0273C23.8644 15.8416 23.3947 17.947 23.0745 20.2342H20.1608C20.6116 19.0893 20.862 17.8443 20.862 16.541C20.8621 15.3101 20.6403 14.13 20.2358 13.0378ZM39.8398 20.2343H36.9261C36.6061 17.947 36.1362 15.8416 35.5314 14.0275C35.0395 12.5515 34.5073 11.4071 33.9618 10.5241C36.0252 10.9975 37.9832 11.8433 39.7648 13.0379C39.3603 14.13 39.1385 15.3102 39.1385 16.5412C39.1385 17.8444 39.389 19.0894 39.8398 20.2343ZM33.308 14.7686C33.8411 16.3679 34.2623 18.2186 34.56 20.2343H25.4408C25.7384 18.2186 26.1596 16.3679 26.6927 14.7686C27.8466 11.3065 29.1957 10.0781 30.0003 10.0781C30.8049 10.0781 32.154 11.3065 33.308 14.7686ZM12.4222 27.6562C12.4222 27.2734 12.4359 26.8894 12.4605 26.507C15.0671 26.0605 17.337 24.6155 18.8577 22.578H22.805C22.6558 24.2145 22.5785 25.9185 22.5785 27.6562C22.5785 29.3876 22.6571 31.0938 22.8078 32.7343H13.1693C12.6812 31.1139 12.4222 29.4064 12.4222 27.6562ZM24.9222 27.6562C24.9222 25.9112 25.0029 24.2059 25.158 22.578H34.8426C34.9978 24.2059 35.0784 25.9112 35.0784 27.6562C35.0784 29.3966 34.9965 31.1038 34.8405 32.7343H25.1606C25.0043 31.1029 24.9222 29.3954 24.9222 27.6562ZM47.5784 27.6562C47.5784 29.4066 47.3195 31.1139 46.8314 32.7343H37.193C37.3436 31.0947 37.4223 29.3888 37.4223 27.6562C37.4223 25.9186 37.345 24.2145 37.1957 22.578H41.143C42.6636 24.6155 44.9335 26.0604 47.5401 26.507C47.5647 26.8894 47.5784 27.2734 47.5784 27.6562ZM49.2521 24.3111C47.4423 24.3111 45.7763 23.6873 44.4541 22.6459C45.2974 20.794 47.1767 19.5526 49.2521 19.5526C51.326 19.5526 53.2067 20.7945 54.0501 22.6459C52.7279 23.6873 51.0621 24.3111 49.2521 24.3111ZM47.6115 15.5682C47.6115 14.6636 48.3474 13.9276 49.2521 13.9276C50.1568 13.9276 50.8927 14.6636 50.8927 15.5682C50.8927 16.4729 50.1568 17.2089 49.2521 17.2089C48.3474 17.2089 47.6115 16.4728 47.6115 15.5682ZM57.022 16.5411C57.022 18.1246 56.5448 19.5982 55.7282 20.8277C54.9422 19.5623 53.7986 18.5546 52.4604 17.9275C52.9477 17.2665 53.2365 16.4505 53.2365 15.5682C53.2365 13.3712 51.4491 11.5839 49.2521 11.5839C47.0551 11.5839 45.2677 13.3712 45.2677 15.5682C45.2677 16.4504 45.5564 17.2662 46.0436 17.9271C44.7052 18.5542 43.562 19.5618 42.7759 20.8276C41.9594 19.5981 41.4822 18.1246 41.4822 16.5412C41.4822 12.2569 44.9677 8.77137 49.2521 8.77137C53.5365 8.77137 57.022 12.2569 57.022 16.5411ZM30.0003 2.34375C35.4581 2.34375 40.739 4.10215 45.0848 7.32973C43.3552 8.11535 41.8838 9.37207 40.8378 10.9376C37.6125 8.83828 33.8925 7.73438 30.0003 7.73438C26.1075 7.73438 22.388 8.83828 19.1628 10.9377C18.1168 9.37207 16.6454 8.11535 14.9158 7.32973C19.2616 4.10215 24.5425 2.34375 30.0003 2.34375ZM10.7485 8.77137C15.0329 8.77137 18.5184 12.2569 18.5184 16.5412C18.5184 18.1247 18.0412 19.5983 17.2246 20.8279C16.4386 19.5625 15.295 18.5548 13.9568 17.9276C14.4441 17.2666 14.7329 16.4507 14.7329 15.5684C14.7329 13.3713 12.9455 11.584 10.7485 11.584C8.55148 11.584 6.76414 13.3713 6.76414 15.5684C6.76414 16.4505 7.05277 17.2663 7.54004 17.9272C6.20164 18.5543 5.05836 19.5619 4.27227 20.8277C3.45582 19.5982 2.97863 18.1247 2.97863 16.5414C2.97863 12.2569 6.46414 8.77137 10.7485 8.77137ZM14.063 35.0781H23.0789C23.4075 37.4229 23.8912 39.5754 24.5089 41.4001C23.6503 41.9576 22.8804 42.6401 22.2274 43.4242C18.5735 41.6225 15.7261 38.6512 14.063 35.0781ZM25.2023 55.991C26.0456 54.1391 27.9249 52.8977 30.0003 52.8977C32.0742 52.8977 33.9549 54.1396 34.7983 55.991C33.4761 57.0325 31.8102 57.6562 30.0003 57.6562C28.1905 57.6562 26.5245 57.0325 25.2023 55.991ZM28.3597 48.9134C28.3597 48.0087 29.0956 47.2727 30.0003 47.2727C30.905 47.2727 31.6409 48.0087 31.6409 48.9134C31.6409 49.818 30.905 50.554 30.0003 50.554C29.0956 50.554 28.3597 49.818 28.3597 48.9134ZM36.4764 54.173C35.6903 52.9076 34.5468 51.8999 33.2086 51.2727C33.6959 50.6118 33.9847 49.7958 33.9847 48.9135C33.9847 46.7164 32.1973 44.9291 30.0003 44.9291C27.8033 44.9291 26.0159 46.7164 26.0159 48.9135C26.0159 49.7957 26.3046 50.6114 26.7918 51.2723C25.4534 51.8994 24.3102 52.907 23.5241 54.1729C22.7076 52.9433 22.2304 51.4698 22.2304 49.8865C22.2304 45.6021 25.7159 42.1166 30.0003 42.1166C34.2847 42.1166 37.7702 45.6021 37.7702 49.8865C37.7702 51.4698 37.293 52.9433 36.4764 54.173ZM40.0638 50.8904C40.0965 50.5601 40.1139 50.2253 40.1139 49.8864C40.1139 48.2766 39.734 46.7545 39.0621 45.4022C45.7004 42.0125 49.9222 35.1838 49.9222 27.6562C49.9222 27.3154 49.9119 26.9735 49.8946 26.6323C51.8463 26.5092 53.6484 25.8302 55.1461 24.7522C55.2557 25.714 55.3128 26.6849 55.3128 27.6562C55.3128 37.8236 49.2655 46.9113 40.0638 50.8904Z"
                      fill="#1AA3E0"/>
                <path d="M7.08691 39.772C6.77871 39.772 6.47637 39.8974 6.2584 40.1153C6.04055 40.3333 5.91504 40.6356 5.91504 40.9438C5.91504 41.2532 6.04043 41.5544 6.2584 41.7735C6.47637 41.9915 6.77871 42.1157 7.08691 42.1157C7.39512 42.1157 7.69746 41.9915 7.91543 41.7735C8.13328 41.5544 8.25879 41.2521 8.25879 40.9438C8.25879 40.6356 8.1334 40.3345 7.91543 40.1153C7.69746 39.8974 7.39512 39.772 7.08691 39.772Z"
                      fill="#1AA3E0"/>
            </g>
            <defs>
                <clipPath id="clip0">
                    <rect width="60" height="60" fill="white"/>
                </clipPath>
            </defs>

        </g>
    </symbol>

    <symbol id="about4" viewBox="0 0 60 60">
        <g>
            <g clip-path="url(#clip0)">
                <path d="M41.2007 42.188H31.3965C30.7494 42.188 30.2246 42.7126 30.2246 43.3598C30.2246 44.0071 30.7494 44.5317 31.3965 44.5317H41.2007C41.8478 44.5317 42.3725 44.0071 42.3725 43.3598C42.3725 42.7126 41.8479 42.188 41.2007 42.188Z"
                      fill="#1AA3E0"/>
                <path d="M47.3086 42.188C47.0003 42.188 46.698 42.3122 46.4801 42.5314C46.2621 42.7481 46.1367 43.0505 46.1367 43.3599C46.1367 43.6681 46.262 43.9704 46.4801 44.1884C46.698 44.4063 47.0003 44.5317 47.3086 44.5317C47.6168 44.5317 47.9191 44.4063 48.137 44.1884C48.355 43.9692 48.4805 43.6681 48.4805 43.3599C48.4805 43.0505 48.3551 42.7493 48.137 42.5314C47.9191 42.3122 47.6167 42.188 47.3086 42.188Z"
                      fill="#1AA3E0"/>
                <path d="M53.4473 42.188C53.1391 42.188 52.8367 42.3122 52.6187 42.5302C52.4008 42.7493 52.2754 43.0517 52.2754 43.3599C52.2754 43.6681 52.4007 43.9704 52.6187 44.1884C52.8367 44.4063 53.1391 44.5317 53.4473 44.5317C53.7555 44.5317 54.0578 44.4063 54.2757 44.1884C54.4948 43.9692 54.6191 43.6681 54.6191 43.3599C54.6191 43.0517 54.4948 42.7493 54.2757 42.5302C54.0578 42.3122 53.7555 42.188 53.4473 42.188Z"
                      fill="#1AA3E0"/>
                <path d="M59.9995 30.2352C59.9995 28.2967 58.4224 26.7196 56.4839 26.7196H47.6948C47.0477 26.7196 46.523 27.2443 46.523 27.8915C46.523 28.5387 47.0477 29.0633 47.6948 29.0633H56.4839C57.1301 29.0633 57.6558 29.589 57.6558 30.2352V35.86C57.6558 36.5062 57.1301 37.0319 56.4839 37.0319H28.3596C27.7135 37.0319 27.1878 36.5062 27.1878 35.86V30.2352C27.1878 29.589 27.7135 29.0633 28.3596 29.0633H37.1486C37.7957 29.0633 38.3204 28.5387 38.3204 27.8915C38.3204 27.2443 37.7957 26.7196 37.1486 26.7196H31.7792V16.7009C31.7792 13.2286 30.8014 9.84013 28.9515 6.90161C27.1018 3.96309 24.469 1.61647 21.3379 0.115222C21.0178 -0.0384072 20.6449 -0.0384072 20.3248 0.115222C17.1937 1.61647 14.561 3.96309 12.7112 6.90161C10.8613 9.84013 9.8835 13.2286 9.8835 16.7009V25.3142L6.15047 26.8958C2.41486 28.4782 0.000976562 32.1222 0.000976562 36.1792V38.2036C0.000976562 38.8508 0.525729 39.3754 1.17282 39.3754H13.3543C13.6721 44.1656 16.1695 48.56 20.1724 51.2817C20.3713 51.417 20.6013 51.4845 20.8313 51.4845C21.0614 51.4845 21.2914 51.4168 21.4903 51.2817C22.9277 50.3044 24.18 49.1036 25.2097 47.7308C25.7853 48.8893 26.9807 49.6877 28.3596 49.6877H41.2499V52.2075C39.9938 52.5948 39.0009 53.5877 38.6136 54.8438H26.0159C25.3688 54.8438 24.8441 55.3684 24.8441 56.0156C24.8441 56.6628 25.3688 57.1875 26.0159 57.1875H38.6136C39.1152 58.8142 40.6325 59.9999 42.4218 59.9999C44.2111 59.9999 45.7284 58.8142 46.2299 57.1875H58.8276C59.4747 57.1875 59.9995 56.6628 59.9995 56.0156C59.9995 55.3684 59.4747 54.8438 58.8276 54.8438H46.2299C45.8426 53.5877 44.8497 52.5948 43.5936 52.2075V49.6877H56.4839C58.4224 49.6877 59.9995 48.1106 59.9995 46.1721V40.5473C59.9995 39.6475 59.6594 38.8261 59.1014 38.2036C59.6593 37.5811 59.9995 36.7596 59.9995 35.8599V30.2352ZM42.4218 57.6563C41.5171 57.6563 40.7812 56.9204 40.7812 56.0158C40.7812 55.1111 41.5171 54.3752 42.4218 54.3752C43.3264 54.3752 44.0624 55.1111 44.0624 56.0158C44.0624 56.9204 43.3264 57.6563 42.4218 57.6563ZM20.8313 2.48282C23.5928 3.93098 25.8306 6.14718 27.3316 8.78887H14.3311C15.8321 6.14718 18.0699 3.93087 20.8313 2.48282ZM2.34467 36.1792C2.34467 33.0653 4.19735 30.2684 7.06451 29.0538L9.8835 27.8596V37.0317H2.34467V36.1792ZM12.2272 33.7507H20.0981C20.7452 33.7507 21.27 33.2261 21.27 32.5788C21.27 31.9316 20.7452 31.407 20.0981 31.407H12.2272V16.7009C12.2272 14.7729 12.582 12.8908 13.2378 11.1326H28.425C29.0807 12.8908 29.4356 14.7729 29.4356 16.7009V26.7196H28.3598C26.4213 26.7196 24.8442 28.2967 24.8442 30.2352V35.86C24.8442 36.2709 24.9157 36.6651 25.0458 37.0319H12.2272V33.7507ZM20.8313 48.8659C17.8545 46.5653 15.9956 43.119 15.7031 39.3755H25.0457C24.9156 39.7423 24.8441 40.1365 24.8441 40.5474V43.7566C23.9454 45.7716 22.5707 47.5216 20.8313 48.8659ZM57.6558 46.1723C57.6558 46.8184 57.1301 47.3441 56.4839 47.3441H28.3596C27.7135 47.3441 27.1878 46.8184 27.1878 46.1723V40.5474C27.1878 39.9012 27.7135 39.3755 28.3596 39.3755H56.4839C57.1301 39.3755 57.6558 39.9012 57.6558 40.5474V46.1723Z"
                      fill="#1AA3E0"/>
                <path d="M30.2246 33.0478C30.2246 33.695 30.7494 34.2197 31.3965 34.2197H41.2007C41.8478 34.2197 42.3725 33.695 42.3725 33.0478C42.3725 32.4006 41.8478 31.876 41.2007 31.876H31.3965C30.7494 31.876 30.2246 32.4006 30.2246 33.0478Z"
                      fill="#1AA3E0"/>
                <path d="M47.3086 34.2197C47.6168 34.2197 47.9191 34.0943 48.137 33.8764C48.355 33.6572 48.4805 33.3561 48.4805 33.0479C48.4805 32.7385 48.3551 32.4373 48.137 32.2193C47.9191 32.0002 47.6168 31.876 47.3086 31.876C47.0003 31.876 46.698 32.0002 46.4801 32.2193C46.2621 32.4373 46.1367 32.7385 46.1367 33.0479C46.1367 33.3561 46.262 33.6584 46.4801 33.8764C46.698 34.0943 47.0003 34.2197 47.3086 34.2197Z"
                      fill="#1AA3E0"/>
                <path d="M54.2757 33.8764C54.4948 33.6572 54.6191 33.3561 54.6191 33.0479C54.6191 32.7396 54.4948 32.4373 54.2757 32.2193C54.0578 32.0002 53.7555 31.876 53.4473 31.876C53.1391 31.876 52.8367 32.0002 52.6187 32.2193C52.4008 32.4373 52.2754 32.7385 52.2754 33.0479C52.2754 33.3561 52.4007 33.6572 52.6187 33.8764C52.8367 34.0943 53.1391 34.2197 53.4473 34.2197C53.7555 34.2197 54.0577 34.0943 54.2757 33.8764Z"
                      fill="#1AA3E0"/>
                <path d="M10.2744 46.5903C9.62729 46.5903 9.10254 47.115 9.10254 47.7622V52.4984C9.10254 53.1456 9.62729 53.6703 10.2744 53.6703C10.9215 53.6703 11.4462 53.1456 11.4462 52.4984V47.7622C11.4462 47.115 10.9216 46.5903 10.2744 46.5903Z"
                      fill="#1AA3E0"/>
                <path d="M16.8359 52.4756C16.1888 52.4756 15.6641 53.0002 15.6641 53.6474V58.8265C15.6641 59.4737 16.1888 59.9984 16.8359 59.9984C17.483 59.9984 18.0078 59.4737 18.0078 58.8265V53.6474C18.0078 53.0002 17.4831 52.4756 16.8359 52.4756Z"
                      fill="#1AA3E0"/>
                <path d="M25.9528 21.2596C25.9528 18.4353 23.6551 16.1377 20.8309 16.1377C18.0066 16.1377 15.709 18.4353 15.709 21.2596C15.709 24.0839 18.0066 26.3815 20.8309 26.3815C23.6551 26.3815 25.9528 24.0839 25.9528 21.2596ZM20.8309 24.0379C19.299 24.0379 18.0527 22.7915 18.0527 21.2597C18.0527 19.7279 19.299 18.4815 20.8309 18.4815C22.3627 18.4815 23.6091 19.7278 23.6091 21.2597C23.6091 22.7917 22.3627 24.0379 20.8309 24.0379Z"
                      fill="#1AA3E0"/>
                <path d="M42.4219 29.064C42.7301 29.064 43.0324 28.9386 43.2503 28.7206C43.4682 28.5015 43.5938 28.2003 43.5938 27.8921C43.5938 27.5827 43.4684 27.2815 43.2503 27.0636C43.0324 26.8444 42.7301 26.7202 42.4219 26.7202C42.1137 26.7202 41.8113 26.8444 41.5934 27.0636C41.3754 27.2815 41.25 27.5827 41.25 27.8921C41.25 28.2003 41.3753 28.5015 41.5934 28.7206C41.8113 28.9386 42.1137 29.064 42.4219 29.064Z"
                      fill="#1AA3E0"/>
            </g>
            <defs>
                <clipPath id="clip0">
                    <rect width="60" height="60" fill="white"/>
                </clipPath>
            </defs>

        </g>
    </symbol>

    <symbol id="about5" viewBox="0 0 60 60">
        <g>
            <path d="M16.9564 23.478H11.739C11.019 23.478 10.4346 24.0624 10.4346 24.7824V35.2172C10.4346 35.9372 11.019 36.5215 11.739 36.5215C12.459 36.5215 13.0433 35.9372 13.0433 35.2172V26.0867H16.9564C17.6764 26.0867 18.2608 25.5023 18.2608 24.7823C18.2608 24.0623 17.6764 23.478 16.9564 23.478Z"
                  fill="#1AA3E0"/>
            <path d="M14.3476 28.6958H11.739C11.019 28.6958 10.4346 29.2802 10.4346 30.0002C10.4346 30.7202 11.019 31.3045 11.739 31.3045H14.3476C15.0676 31.3045 15.652 30.7201 15.652 30.0001C15.652 29.2801 15.0676 28.6958 14.3476 28.6958Z"
                  fill="#1AA3E0"/>
            <path d="M29.9999 0C13.4583 0 0 13.4583 0 29.9999C0 46.5416 13.4583 59.9999 29.9999 59.9999C46.5416 59.9999 59.9999 46.5416 59.9999 29.9999C59.9999 13.4583 46.5417 0 29.9999 0ZM29.9999 57.3912C14.8956 57.3912 2.60865 45.1043 2.60865 29.9999C2.60865 14.8956 14.8956 2.60865 29.9999 2.60865C45.1043 2.60865 57.3912 14.8956 57.3912 29.9999C57.3912 45.1043 45.1043 57.3912 29.9999 57.3912Z"
                  fill="#1AA3E0"/>
            <path d="M47.2929 16.14C43.0538 10.8574 36.7512 7.82617 29.9999 7.82617C23.2485 7.82617 16.9459 10.8574 12.7068 16.14C12.2554 16.7009 12.3442 17.5227 12.9077 17.9739C13.4686 18.4253 14.2903 18.3365 14.739 17.773C18.4824 13.1087 24.0442 10.4347 29.9999 10.4347C35.9555 10.4347 41.5173 13.1087 45.2581 17.773C45.5164 18.0939 45.8946 18.2608 46.2755 18.2608C46.5651 18.2608 46.8521 18.1669 47.092 17.9738C47.6555 17.5227 47.7443 16.7009 47.2929 16.14Z"
                  fill="#1AA3E0"/>
            <path d="M46.027 43.4006C45.5105 42.9076 44.681 42.9285 44.1853 43.4501C40.4419 47.3919 35.4045 49.5649 29.9992 49.5649C24.594 49.5649 19.5567 47.3918 15.8158 43.4501C15.3228 42.9232 14.4932 42.9076 13.9741 43.4006C13.4472 43.8962 13.4288 44.7232 13.9246 45.245C18.1638 49.7137 23.8715 52.1736 29.9994 52.1736C36.1272 52.1736 41.835 49.7137 46.0767 45.245C46.5723 44.7232 46.5514 43.8962 46.027 43.4006Z"
                  fill="#1AA3E0"/>
            <path d="M25.2883 31.2702C27.2083 31.0224 28.6952 29.3763 28.6952 27.3911C28.6952 25.2336 26.9396 23.478 24.7822 23.478H22.1735C21.4535 23.478 20.8691 24.0624 20.8691 24.7824V29.9893C20.8691 29.9946 20.8691 30.0024 20.8691 30.0075V35.2172C20.8691 35.9372 21.4535 36.5215 22.1735 36.5215C22.8935 36.5215 23.4779 35.9372 23.4779 35.2172V33.1485L26.4675 36.1406C26.7232 36.3936 27.057 36.5215 27.391 36.5215C27.7249 36.5215 28.0587 36.3938 28.3119 36.1381C28.8206 35.6294 28.8206 34.8024 28.3119 34.2937L25.2883 31.2702ZM23.4779 28.6955V26.0868H24.7823C25.4997 26.0868 26.0867 26.6712 26.0867 27.3912C26.0867 28.1112 25.4997 28.6956 24.7823 28.6956H23.4779V28.6955Z"
                  fill="#1AA3E0"/>
            <path d="M37.8255 33.9128H33.9125V26.0867H37.8255C38.5455 26.0867 39.1299 25.5023 39.1299 24.7823C39.1299 24.0623 38.5455 23.478 37.8255 23.478H32.6081C31.8881 23.478 31.3037 24.0624 31.3037 24.7824V35.2172C31.3037 35.9372 31.8881 36.5215 32.6081 36.5215H37.8255C38.5455 36.5215 39.1299 35.9372 39.1299 35.2172C39.1299 34.4972 38.5455 33.9128 37.8255 33.9128Z"
                  fill="#1AA3E0"/>
            <path d="M35.2177 28.6958H32.6091C31.8891 28.6958 31.3047 29.2802 31.3047 30.0002C31.3047 30.7202 31.8891 31.3045 32.6091 31.3045H35.2177C35.9377 31.3045 36.5221 30.7201 36.5221 30.0001C36.5221 29.2801 35.9377 28.6958 35.2177 28.6958Z"
                  fill="#1AA3E0"/>
            <path d="M48.2611 33.9128H44.348V26.0867H48.2611C48.9811 26.0867 49.5655 25.5023 49.5655 24.7823C49.5655 24.0623 48.9811 23.478 48.2611 23.478H43.0436C42.3236 23.478 41.7393 24.0624 41.7393 24.7824V35.2172C41.7393 35.9372 42.3236 36.5215 43.0436 36.5215H48.2611C48.9811 36.5215 49.5655 35.9372 49.5655 35.2172C49.5655 34.4972 48.9811 33.9128 48.2611 33.9128Z"
                  fill="#1AA3E0"/>
            <path d="M45.6523 28.6958H43.0436C42.3236 28.6958 41.7393 29.2802 41.7393 30.0002C41.7393 30.7202 42.3236 31.3045 43.0436 31.3045H45.6523C46.3723 31.3045 46.9567 30.7201 46.9567 30.0001C46.9567 29.2801 46.3723 28.6958 45.6523 28.6958Z"
                  fill="#1AA3E0"/>

        </g>
    </symbol>

    <symbol id="check" viewBox="0 0 24 18">
        <g>
            <path d="M0 8.5L2.4 6L8 10.5L21.6 0L24 2.5L8 17.5L0 8.5Z" fill="#27AE60"/>

        </g>
    </symbol>


    <symbol id="dots" viewBox="0 0 4 16">
        <g>
            <path d="M2 12C2.53043 12 3.03914 12.2107 3.41421 12.5858C3.78929 12.9609 4 13.4696 4 14C4 14.5304 3.78929 15.0391 3.41421 15.4142C3.03914 15.7893 2.53043 16 2 16C1.46957 16 0.96086 15.7893 0.585787 15.4142C0.210714 15.0391 0 14.5304 0 14C0 13.4696 0.210714 12.9609 0.585787 12.5858C0.96086 12.2107 1.46957 12 2 12ZM2 6C2.53043 6 3.03914 6.21071 3.41421 6.58579C3.78929 6.96086 4 7.46957 4 8C4 8.53043 3.78929 9.03914 3.41421 9.41421C3.03914 9.78929 2.53043 10 2 10C1.46957 10 0.96086 9.78929 0.585787 9.41421C0.210714 9.03914 0 8.53043 0 8C0 7.46957 0.210714 6.96086 0.585787 6.58579C0.96086 6.21071 1.46957 6 2 6ZM2 0C2.53043 0 3.03914 0.210714 3.41421 0.585786C3.78929 0.960859 4 1.46957 4 2C4 2.53043 3.78929 3.03914 3.41421 3.41421C3.03914 3.78929 2.53043 4 2 4C1.46957 4 0.96086 3.78929 0.585787 3.41421C0.210714 3.03914 0 2.53043 0 2C0 1.46957 0.210714 0.960859 0.585787 0.585786C0.96086 0.210714 1.46957 0 2 0Z"
                  fill="#1AA3E0"/>
        </g>
    </symbol>

    <symbol id="apple" viewBox="0 0 32 32">
        <g>
            <path d="M21.9974 0C20.2914 0.117999 18.2974 1.20999 17.1354 2.63198C16.0754 3.92198 15.2034 5.83797 15.5434 7.69996C17.4074 7.75796 19.3334 6.63996 20.4494 5.19397C21.4934 3.84798 22.2834 1.94399 21.9974 0Z"
                  fill="white"/>
            <path d="M28.7411 10.7356C27.1031 8.68159 24.8011 7.48959 22.6271 7.48959C19.7571 7.48959 18.5431 8.86359 16.5492 8.86359C14.4932 8.86359 12.9312 7.49359 10.4492 7.49359C8.0112 7.49359 5.41522 8.98358 3.76923 11.5316C1.45524 15.1195 1.85124 21.8655 5.60122 27.6115C6.94321 29.6675 8.7352 31.9795 11.0792 31.9995C13.1652 32.0195 13.7532 30.6615 16.5792 30.6475C19.4051 30.6315 19.9411 32.0175 22.0231 31.9955C24.3691 31.9775 26.2591 29.4155 27.6011 27.3595C28.5631 25.8855 28.9211 25.1435 29.6671 23.4795C24.2411 21.4135 23.3711 13.6976 28.7411 10.7356Z"
                  fill="white"/>

        </g>
    </symbol>

    <symbol id="windows" viewBox="0 0 32 32">
        <g>
            <path d="M14 15V3.25L0 5V15H14Z" fill="white"/>
            <path d="M16 15H32V1L16 3V15Z" fill="white"/>
            <path d="M16 17V29L32 31V17H16Z" fill="white"/>
            <path d="M14 17H0V27L14 28.75V17Z" fill="white"/>
        </g>
    </symbol>
</svg>
